<svg fill="none" height="16" viewBox="0 0 16 16" width="16" xmlns="http://www.w3.org/2000/svg" xmlns:xlink="http://www.w3.org/1999/xlink"><linearGradient id="a" gradientUnits="userSpaceOnUse" x1="16" x2="4.99998" y1="16" y2="-.000001"><stop offset="0" stop-color="#209497"/><stop offset="1" stop-color="#3edebf"/></linearGradient><g fill="url(#a)"><path d="m12 8.03516c1.6962.24259 3 1.70159 3 3.46484 0 .6026-.1537 1.169-.4219 1.6641l1.2754 1.2754c.1952.1952.1952.5117 0 .707l-.707.707c-.1953.1952-.5118.1952-.707 0l-1.2754-1.2754c-.4951.2682-1.0615.4219-1.6641.4219-1.7632 0-3.22121-1.3039-3.46387-3h1.01367c.23162 1.1411 1.2407 2 2.4502 2 1.3807 0 2.5-1.1193 2.5-2.5 0-1.2095-.8589-2.21858-2-2.4502z"/><path d="m3 11 .00488.1025c.0479.4705.42215.8447.89258.8926l.10254.0049h2.96387c-.24266 1.6961-1.70067 3-3.46387 3-1.933 0-3.5-1.567-3.5-3.5 0-1.76325 1.30383-3.22225 3-3.46484z"/><path d="m11.5 9.5c1.1046 0 2 .8954 2 2s-.8954 2-2 2-2-.8954-2-2 .8954-2 2-2z"/><path d="m11.5 9c-1.3807 0-2.5 1.1193-2.5 2.5h-1c0-1.933 1.567-3.5 3.5-3.5z"/><path d="m3.5 8c1.933 0 3.5 1.567 3.5 3.5h-3c-.27614 0-.5-.2239-.5-.5z"/><path d="m7 3.5c0 1.933-1.567 3.5-3.5 3.5v-3c0-.27614.22386-.5.5-.5z"/><path d="m11 3.5c.2761 0 .5.22386.5.5v3c-1.933 0-3.5-1.567-3.5-3.5z"/><path d="m3.5 0c1.7632 0 3.22121 1.3039 3.46387 3h-2.96387c-.55228 0-1 .44772-1 1v2.96387c-1.6961-.24266-3-1.70067-3-3.46387 0-1.933 1.567-3.5 3.5-3.5z"/><path d="m11.5 0c1.933 0 3.5 1.567 3.5 3.5 0 1.7632-1.3039 3.22121-3 3.46387v-2.96387c0-.55228-.4477-1-1-1h-2.96387c.24266-1.6961 1.70067-3 3.46387-3z"/></g></svg>