<svg width="2757" height="1652" xmlns="http://www.w3.org/2000/svg" xmlns:xlink="http://www.w3.org/1999/xlink" xml:space="preserve" overflow="hidden"><defs><clipPath id="clip0"><rect x="119" y="453" width="2757" height="1652"/></clipPath></defs><g clip-path="url(#clip0)" transform="translate(-119 -453)"><rect x="137" y="1605" width="2097" height="500" fill="#F2F2F2"/><text font-family="Arial,Arial_MSFontService,sans-serif" font-weight="400" font-size="82" transform="matrix(1 0 0 1 215.172 1711)">Reference Landscape</text><path d="M230.5 1924 300.75 1783.5 619.25 1783.5 689.5 1924 619.25 2064.5 300.75 2064.5Z" stroke="#008FD3" stroke-width="9.16667" stroke-miterlimit="8" fill="#C3ECFF" fill-rule="evenodd"/><text fill="#004769" font-family="Arial,Arial_MSFontService,sans-serif" font-weight="400" font-size="48" transform="matrix(1 0 0 1 329.064 1874)">Applications </text><text fill="#004769" font-family="Arial,Arial_MSFontService,sans-serif" font-weight="400" font-size="48" transform="matrix(1 0 0 1 353.7 1932)">/ Services</text><text fill="#004769" font-family="Arial,Arial_MSFontService,sans-serif" font-weight="400" font-size="32" transform="matrix(1 0 0 1 376.319 1974)">Reference / </text><text fill="#004769" font-family="Arial,Arial_MSFontService,sans-serif" font-weight="400" font-size="32" transform="matrix(1 0 0 1 338.231 2012)">Sandbox System</text><rect x="137" y="457" width="2097" height="1115" fill="#F2F2F2"/><text font-family="Arial,Arial_MSFontService,sans-serif" font-weight="400" font-size="82" transform="matrix(1 0 0 1 169.332 563)">Customer System Landscape</text><rect x="2265" y="1389" width="604" height="716" fill="#F2F2F2"/><text font-family="Arial,Arial_MSFontService,sans-serif" font-weight="400" font-size="41" transform="matrix(1 0 0 1 2297.48 1455)">Legend</text><path d="M2353 1565.5 2369.25 1533 2786.75 1533 2803 1565.5 2786.75 1598 2369.25 1598Z" stroke="#008FD3" stroke-width="5.72917" stroke-miterlimit="8" fill="#C3ECFF" fill-rule="evenodd"/><text fill="#004769" font-family="Arial,Arial_MSFontService,sans-serif" font-weight="400" font-size="32" transform="matrix(1 0 0 1 2478.35 1577)">ORD Provider</text><path d="M2353 1653 2369.5 1620 2786.5 1620 2803 1653 2786.5 1686 2369.5 1686Z" stroke="#4FB81C" stroke-width="5.72917" stroke-miterlimit="8" fill="#DAF7CB" fill-rule="evenodd"/><text fill="#275C0E" font-family="Arial,Arial_MSFontService,sans-serif" font-weight="400" font-size="32" transform="matrix(1 0 0 1 2464.03 1665)">ORD Consumer</text><path d="M2353 1741 2369.5 1708 2786.5 1708 2803 1741 2786.5 1774 2369.5 1774Z" stroke="#E35500" stroke-width="5.72917" stroke-miterlimit="8" fill="#FFDCC6" fill-rule="evenodd"/><text fill="#722A00" font-family="Arial,Arial_MSFontService,sans-serif" font-weight="400" font-size="24" transform="matrix(1 0 0 1 2488.91 1750)">ORD Aggregator</text><path d="M2356 1833 2374 1797 2789 1797 2807 1833 2789 1869 2374 1869Z" stroke="#760A85" stroke-width="5.72917" stroke-miterlimit="8" fill="#F2BBFA" fill-rule="evenodd"/><text font-family="Arial,Arial_MSFontService,sans-serif" font-weight="400" font-size="23" transform="matrix(1 0 0 1 2498.36 1841)">External Service</text><path d="M28.6458-5.72914 436.034-5.72881 436.034 5.72953 28.6458 5.72919ZM34.375 17.1875 0 0 34.375-17.1875Z" transform="matrix(-1 0 0 1 2807.53 1927.5)"/><text font-family="Arial,Arial_MSFontService,sans-serif" font-weight="400" font-size="32" transform="matrix(1 0 0 1 2425.83 1970)">meta</text><text font-family="Arial,Arial_MSFontService,sans-serif" font-weight="400" font-size="32" transform="matrix(1 0 0 1 2497.44 1970)">-</text><text font-family="Arial,Arial_MSFontService,sans-serif" font-weight="400" font-size="32" transform="matrix(1 0 0 1 2508.33 1970)">data exchange</text><path d="M28.6458-5.72914 432.732-5.72881 432.732 5.72953 28.6458 5.72919ZM34.375 17.1875 0 0 34.375-17.1875Z" fill="#7F7F7F" transform="matrix(-1 0 0 1 2803.23 2012.5)"/><text font-family="Arial,Arial_MSFontService,sans-serif" font-weight="400" font-size="32" transform="matrix(1 0 0 1 2503.56 2057)">integration</text><path d="M1524.23 988.5 1524.23 1213.36 1512.77 1213.36 1512.77 988.5ZM1535.69 1207.63 1518.5 1242 1501.31 1207.63Z"/><path d="M6.0291e-06-5.72917 314.293-5.72884 314.293 5.7295-6.0291e-06 5.72917ZM308.564-17.1872 342.939 0.000360892 308.564 17.1878Z" transform="matrix(-1 0 0 1 1004.44 828.5)"/><path d="M643.5 1421 695.75 1316.5 1095.25 1316.5 1147.5 1421 1095.25 1525.5 695.75 1525.5Z" stroke="#008FD3" stroke-width="9.16667" stroke-miterlimit="8" fill="#C3ECFF" fill-rule="evenodd"/><text fill="#004769" font-family="Arial,Arial_MSFontService,sans-serif" font-weight="400" font-size="50" transform="matrix(1 0 0 1 757.818 1409)">Application / </text><text fill="#004769" font-family="Arial,Arial_MSFontService,sans-serif" font-weight="400" font-size="50" transform="matrix(1 0 0 1 811.099 1470)">Service</text><path d="M4.78522-3.15041 166.564 242.579 156.994 248.88-4.78522 3.15041ZM172.984 231.493 177.531 269.656 144.273 250.396Z" transform="matrix(-1 0 0 1 1083.03 984.5)"/><path d="M1114.5 1774 1165.75 1671.5 2041.25 1671.5 2092.5 1774 2041.25 1876.5 1165.75 1876.5Z" stroke="#E35500" stroke-width="9.16667" stroke-miterlimit="8" fill="#FFDCC6" fill-rule="evenodd"/><text font-family="Arial,Arial_MSFontService,sans-serif" font-weight="700" font-size="55" transform="matrix(1 0 0 1 1261.53 1763)">Business Accelerator Hub</text><text font-family="Arial,Arial_MSFontService,sans-serif" font-weight="400" font-size="50" transform="matrix(1 0 0 1 1384.41 1825)">Static Catalog View</text><path d="M1172.03 1876.5 1172.03 1919.31C1172.03 1922.48 1169.46 1925.04 1166.3 1925.04L764.146 1925.04 764.146 1913.58 1166.3 1913.58 1160.57 1919.31 1160.57 1876.5ZM769.875 1936.5 735.5 1919.31 769.875 1902.12Z"/><path d="M209.5 1909 279.75 1768.5 611.25 1768.5 681.5 1909 611.25 2049.5 279.75 2049.5Z" stroke="#008FD3" stroke-width="9.16667" stroke-miterlimit="8" fill="#C3ECFF" fill-rule="evenodd"/><text fill="#004769" font-family="Arial,Arial_MSFontService,sans-serif" font-weight="400" font-size="50" transform="matrix(1 0 0 1 308.336 1858)">Applications </text><text fill="#004769" font-family="Arial,Arial_MSFontService,sans-serif" font-weight="400" font-size="50" transform="matrix(1 0 0 1 334.117 1919)">/ Services</text><text fill="#004769" font-family="Arial,Arial_MSFontService,sans-serif" font-weight="400" font-size="32" transform="matrix(1 0 0 1 361.617 1961)">Reference / </text><text fill="#004769" font-family="Arial,Arial_MSFontService,sans-serif" font-weight="400" font-size="32" transform="matrix(1 0 0 1 323.506 2000)">Sandbox System</text><path d="M1286.5 1422.5 1338 1319.5 1739 1319.5 1790.5 1422.5 1739 1525.5 1338 1525.5Z" stroke="#008FD3" stroke-width="9.16667" stroke-miterlimit="8" fill="#C3ECFF" fill-rule="evenodd"/><text fill="#004769" font-family="Arial,Arial_MSFontService,sans-serif" font-weight="400" font-size="50" transform="matrix(1 0 0 1 1414.52 1410)">Application</text><text fill="#004769" font-family="Arial,Arial_MSFontService,sans-serif" font-weight="400" font-size="50" transform="matrix(1 0 0 1 1440.3 1471)">/ Service</text><path d="M0-5.72917 172.381-5.72917C175.545-5.72917 178.11-3.16413 178.11 0L178.11 238.245 172.381 232.515 316.116 232.515 316.116 243.974 172.381 243.974C169.217 243.974 166.652 241.409 166.652 238.245L166.652 0 172.381 5.72917 0 5.72917ZM310.387 221.057 344.762 238.245 310.387 255.432Z" transform="matrix(-1 1.22465e-16 1.22465e-16 1 2292.26 778.5)"/><path d="M418.5 751 460.25 667.5 624.75 667.5 666.5 751 624.75 834.5 460.25 834.5Z" stroke="#760A85" stroke-width="6.875" stroke-miterlimit="8" fill="#F2BBFA" fill-rule="evenodd"/><text font-family="Arial,Arial_MSFontService,sans-serif" font-weight="400" font-size="32" transform="matrix(1 0 0 1 511.462 743)">BTP </text><text font-family="Arial,Arial_MSFontService,sans-serif" font-weight="400" font-size="32" transform="matrix(1 0 0 1 454.445 782)">Destinations</text><path d="M210.5 849 252.75 764.5 404.25 764.5 446.5 849 404.25 933.5 252.75 933.5Z" stroke="#760A85" stroke-width="6.875" stroke-miterlimit="8" fill="#F2BBFA" fill-rule="evenodd"/><text font-family="Arial,Arial_MSFontService,sans-serif" font-weight="400" font-size="32" transform="matrix(1 0 0 1 299.28 841)">SM/</text><text font-family="Arial,Arial_MSFontService,sans-serif" font-weight="400" font-size="32" transform="matrix(1 0 0 1 293.253 880)">USO</text><path d="M422.5 937 464.75 852.5 623.25 852.5 665.5 937 623.25 1021.5 464.75 1021.5Z" stroke="#760A85" stroke-width="6.875" stroke-miterlimit="8" fill="#F2BBFA" fill-rule="evenodd"/><text font-family="Arial,Arial_MSFontService,sans-serif" font-weight="400" font-size="32" transform="matrix(1 0 0 1 466.689 929)">SPC/SLIS/</text><text font-family="Arial,Arial_MSFontService,sans-serif" font-weight="400" font-size="32" transform="matrix(1 0 0 1 484.747 968)">CLD/UP</text><path d="M209.5 1031 251.75 946.5 403.25 946.5 445.5 1031 403.25 1115.5 251.75 1115.5Z" stroke="#760A85" stroke-width="6.875" stroke-miterlimit="8" fill="#F2BBFA" fill-rule="evenodd"/><text font-family="Arial,Arial_MSFontService,sans-serif" font-weight="400" font-size="32" transform="matrix(1 0 0 1 259.451 1004)">Runtimes </text><text font-family="Arial,Arial_MSFontService,sans-serif" font-weight="400" font-size="32" transform="matrix(1 0 0 1 275.493 1043)">Control </text><text font-family="Arial,Arial_MSFontService,sans-serif" font-weight="400" font-size="32" transform="matrix(1 0 0 1 286.378 1081)">Plane</text><path d="M418.5 1121 460.75 1036.5 619.25 1036.5 661.5 1121 619.25 1205.5 460.75 1205.5Z" stroke="#760A85" stroke-width="6.875" stroke-miterlimit="8" fill="#F2BBFA" fill-rule="evenodd"/><text font-family="Arial,Arial_MSFontService,sans-serif" font-weight="400" font-size="32" transform="matrix(1 0 0 1 469.527 1113)">CIS/SaaS </text><text font-family="Arial,Arial_MSFontService,sans-serif" font-weight="400" font-size="32" transform="matrix(1 0 0 1 480.986 1152)">Registry</text><path d="M1004.5 828 1082.75 671.5 1978.25 671.5 2056.5 828 1978.25 984.5 1082.75 984.5Z" stroke="#E35500" stroke-width="9.16667" stroke-miterlimit="8" fill="#FFDCC6" fill-rule="evenodd"/><text font-family="Arial,Arial_MSFontService,sans-serif" font-weight="700" font-size="64" transform="matrix(1 0 0 1 1263.07 772)">Unified Customer </text><text font-family="Arial,Arial_MSFontService,sans-serif" font-weight="700" font-size="64" transform="matrix(1 0 0 1 1267.08 849)">Landscape (UCL)</text><text font-family="Arial,Arial_MSFontService,sans-serif" font-weight="400" font-size="46" transform="matrix(1 0 0 1 1154.79 936)">Discovery &amp; Integration Management</text><path d="M1176.21 1415.11 1286.28 1416.43 1286.15 1427.89 1176.07 1426.57ZM1181.67 1438.1 1147.5 1420.5 1182.08 1403.73Z" fill="#7F7F7F"/><path d="M2346.5 914 2346.5 872.5 2823.5 872.5 2823.5 914 2823.5 955.5 2346.5 955.5Z" stroke="#4FB81C" stroke-width="9.16667" stroke-miterlimit="8" fill="#DAF7CB" fill-rule="evenodd"/><text font-family="Arial,Arial_MSFontService,sans-serif" font-weight="400" font-size="41" transform="matrix(1 0 0 1 2497.05 929)">SAP </text><text font-family="Arial,Arial_MSFontService,sans-serif" font-weight="400" font-size="41" transform="matrix(1 0 0 1 2591.01 929)">BTP</text><path d="M2292.5 779 2345.51 685.5 2817.49 685.5 2870.5 779 2817.49 872.5 2345.51 872.5Z" stroke="#4FB81C" stroke-width="9.16667" stroke-miterlimit="8" fill="#DAF7CB" fill-rule="evenodd"/><text font-family="Arial,Arial_MSFontService,sans-serif" font-weight="400" font-size="50" transform="matrix(1 0 0 1 2525.07 767)">ORD</text><text font-family="Arial,Arial_MSFontService,sans-serif" font-weight="400" font-size="50" transform="matrix(1 0 0 1 2464.92 828)">Consumer</text><path d="M2346.5 1014.5 2346.5 953.5 2823.5 953.5 2823.5 1014.5 2823.5 1075.5 2346.5 1075.5Z" stroke="#4FB81C" stroke-width="9.16667" stroke-miterlimit="8" fill="#DAF7CB" fill-rule="evenodd"/><text font-family="Arial,Arial_MSFontService,sans-serif" font-weight="400" font-size="41" transform="matrix(1 0 0 1 2453.51 1005)">SAP </text><text font-family="Arial,Arial_MSFontService,sans-serif" font-weight="400" font-size="41" transform="matrix(1 0 0 1 2547.47 1005)">Business </text><text font-family="Arial,Arial_MSFontService,sans-serif" font-weight="400" font-size="41" transform="matrix(1 0 0 1 2419.14 1055)">Application Studio</text><text font-family="Arial,Arial_MSFontService,sans-serif" font-weight="400" font-size="37" transform="matrix(1 0 0 1 788.563 809)">discover</text><text font-family="Arial,Arial_MSFontService,sans-serif" font-weight="400" font-size="37" transform="matrix(1 0 0 1 715.803 875)">system instances,</text><text font-family="Arial,Arial_MSFontService,sans-serif" font-weight="400" font-size="37" transform="matrix(1 0 0 1 758.473 919)">destinations,  </text><text font-family="Arial,Arial_MSFontService,sans-serif" font-weight="400" font-size="37" transform="matrix(1 0 0 1 738.146 963)">integrations, …</text><path d="M2292.5 556.5 2342 457.5 2820 457.5 2869.5 556.5 2820 655.5 2342 655.5Z" stroke="#E35500" stroke-width="9.16667" stroke-miterlimit="8" fill="#FFDCC6" fill-rule="evenodd"/><text font-family="Arial,Arial_MSFontService,sans-serif" font-weight="400" font-size="48" transform="matrix(1 0 0 1 2491.96 517)">External </text><text font-family="Arial,Arial_MSFontService,sans-serif" font-weight="400" font-size="48" transform="matrix(1 0 0 1 2435.81 575)">Aggregators / </text><text font-family="Arial,Arial_MSFontService,sans-serif" font-weight="400" font-size="48" transform="matrix(1 0 0 1 2485.08 632)">Catalogs</text><path d="M28.6458-5.72917 172.381-5.72917C175.545-5.72917 178.11-3.16413 178.11 0L178.11 460.442 172.381 454.712 316.116 454.712 316.116 466.171 172.381 466.171C169.217 466.171 166.652 463.606 166.652 460.442L166.652 0 172.381 5.72917 28.6458 5.72917ZM34.375 17.1875 0 0 34.375-17.1875ZM310.387 443.254 344.762 460.442 310.387 477.629Z" transform="matrix(-1 1.22465e-16 1.22465e-16 1 2292.26 556.5)"/><rect x="1595" y="963" width="329" height="106" fill="#E35500"/><g><g><g><path d="M55.3669 37.4032C55.4872 36.5443 55.5494 35.6668 55.5494 34.7747 55.5494 34.7504 55.5494 34.7261 55.5493 34.7018L60.5239 34.7018C60.5238 34.7261 60.5238 34.7504 60.5238 34.7747 60.5238 35.6668 60.586 36.5443 60.7063 37.4032L55.3669 37.4032ZM39.5149 53.3509 39.5149 37.4032 55.3669 37.4032C54.2141 45.6316 47.7278 52.1499 39.5149 53.3509ZM39.5149 58.7228 39.5149 53.3509C38.6328 53.4799 37.7309 53.5475 36.8135 53.5494L36.8135 37.4032 36.8135 34.7018 39.5149 34.7018 55.5493 34.7018C55.51 24.3663 47.1194 16 36.7747 16 26.4057 16 18 24.4057 18 34.7747 18 45.1437 26.4057 53.5494 36.7747 53.5494 36.7876 53.5494 36.8006 53.5494 36.8135 53.5494L36.8135 58.5244C36.8006 58.5243 36.7876 58.5243 36.7747 58.5243 26.4057 58.5243 18 66.93 18 77.299 18 87.6681 26.4057 96.0738 36.7747 96.0738 47.1437 96.0738 55.5494 87.6681 55.5494 77.299 55.5494 77.2747 55.5494 77.2504 55.5493 77.2261L76.6365 77.2261 79.3379 77.2261 79.3379 74.5247 79.3379 53.5494C89.6888 53.5281 98.0733 45.1306 98.0733 34.7747 98.0733 24.4057 89.6676 16 79.2985 16 68.9538 16 60.5632 24.3663 60.5239 34.7018L76.6365 34.7018 79.3379 34.7018 79.3379 37.4032 79.3379 53.5494C79.3247 53.5494 79.3116 53.5494 79.2985 53.5494 78.3948 53.5494 77.506 53.4856 76.6365 53.3621L76.6365 37.4032 60.7063 37.4032C61.8627 45.6577 68.3866 52.1912 76.6365 53.3621L76.6365 74.5247 55.3459 74.5247C54.1373 66.3652 47.6792 59.9167 39.5149 58.7228ZM55.3459 74.5247C55.4765 75.4067 55.5458 76.3087 55.5493 77.2261L39.5149 77.2261 36.8135 77.2261 36.8135 74.5247 36.8135 58.5244C37.7309 58.5262 38.6328 58.5939 39.5149 58.7228L39.5149 74.5247 55.3459 74.5247Z" fill="#FFFFFF" fill-rule="evenodd" transform="matrix(1 0 0 1 1591 959)"/><path d="M79.2981 90.6525C86.6833 90.6525 92.6702 84.6658 92.6702 77.2806 92.6702 69.8955 86.6833 63.9087 79.2981 63.9087 71.913 63.9087 65.9262 69.8955 65.9262 77.2806 65.9262 84.6658 71.913 90.6525 79.2981 90.6525ZM79.2981 96.0554C89.6672 96.0554 98.073 87.6497 98.073 77.2806 98.073 66.9116 89.6672 58.5059 79.2981 58.5059 68.9292 58.5059 60.5234 66.9116 60.5234 77.2806 60.5234 87.6497 68.9292 96.0554 79.2981 96.0554Z" fill="#FFFFFF" fill-rule="evenodd" transform="matrix(1 0 0 1 1591 959)"/><path d="M97.3918 87.2306 105.994 95.9911 98.6335 103.301 90.0312 94.5404 97.3918 87.2306Z" fill="#FFFFFF" fill-rule="evenodd" transform="matrix(1 0 0 1 1591 959)"/><path d="M88.5318 74.5765C87.7371 75.1996 86.7327 75.566 85.6445 75.5528 83.1078 75.5222 81.0763 73.4411 81.1069 70.9046 81.1196 69.8548 81.4835 68.8915 82.0855 68.1251 81.2471 67.8741 80.3601 67.7344 79.4414 67.7233 74.1365 67.6593 69.784 71.908 69.72 77.2129 69.656 82.5179 73.9046 86.8704 79.2096 86.9345 84.5147 86.9985 88.8671 82.7497 88.9311 77.4448 88.9432 76.4477 88.8027 75.4842 88.5318 74.5765Z" fill="#FFFFFF" fill-rule="evenodd" transform="matrix(1 0 0 1 1591 959)"/></g></g></g><text fill="#FFFFFF" font-family="Arial,Arial_MSFontService,sans-serif" font-weight="400" font-size="32" transform="matrix(1 0 0 1 1773.32 1009)">ORD </text><text fill="#FFFFFF" font-family="Arial,Arial_MSFontService,sans-serif" font-weight="400" font-size="32" transform="matrix(1 0 0 1 1708.28 1048)">Discovery API</text><rect x="1670" y="1849" width="329" height="105" fill="#E35500"/><g><g><g><path d="M55.8441 37.7256C55.9655 36.8593 56.0282 35.9742 56.0282 35.0744 56.0282 35.0499 56.0282 35.0254 56.0281 35.0009L61.0456 35.0009C61.0455 35.0254 61.0455 35.0499 61.0455 35.0744 61.0455 35.9742 61.1082 36.8593 61.2296 37.7256L55.8441 37.7256ZM39.8555 53.8108 39.8555 37.7256 55.8441 37.7256C54.6814 46.0249 48.1392 52.5994 39.8555 53.8108ZM39.8555 59.229 39.8555 53.8108C38.9658 53.9409 38.0561 54.0091 37.1308 54.011L37.1308 37.7256 37.1308 35.0009 39.8555 35.0009 56.0281 35.0009C55.9885 24.5763 47.5255 16.1379 37.0917 16.1379 26.6333 16.1379 18.1552 24.6161 18.1552 35.0744 18.1552 45.5328 26.6333 54.011 37.0917 54.011 37.1047 54.011 37.1178 54.011 37.1308 54.011L37.1308 59.0289C37.1178 59.0288 37.1047 59.0288 37.0917 59.0288 26.6333 59.0288 18.1552 67.5069 18.1552 77.9653 18.1552 88.4237 26.6333 96.9018 37.0917 96.9018 47.5501 96.9018 56.0282 88.4237 56.0282 77.9653 56.0282 77.9408 56.0282 77.9163 56.0281 77.8918L77.2971 77.8918 80.0218 77.8918 80.0218 75.1671 80.0218 54.011C90.4618 53.9895 98.9185 45.5196 98.9185 35.0744 98.9185 24.6161 90.4404 16.1379 79.982 16.1379 69.5481 16.1379 61.0852 24.5763 61.0456 35.0009L77.2971 35.0009 80.0218 35.0009 80.0218 37.7256 80.0218 54.011C80.0084 54.011 79.9952 54.011 79.982 54.011 79.0705 54.011 78.1741 53.9466 77.2971 53.8221L77.2971 37.7256 61.2296 37.7256C62.3959 46.0512 68.9761 52.6411 77.2971 53.8221L77.2971 75.1671 55.823 75.1671C54.6039 66.9372 48.0902 60.4332 39.8555 59.229ZM55.823 75.1671C55.9547 76.0567 56.0246 76.9664 56.0281 77.8918L39.8555 77.8918 37.1308 77.8918 37.1308 75.1671 37.1308 59.0289C38.0561 59.0307 38.9658 59.099 39.8555 59.229L39.8555 75.1671 55.823 75.1671Z" fill="#FFFFFF" fill-rule="evenodd" transform="matrix(1 0 0 1.00031 1666 1844)"/><path d="M79.9816 91.4339C87.4305 91.4339 93.4689 85.3955 93.4689 77.9467 93.4689 70.498 87.4305 64.4596 79.9816 64.4596 72.5329 64.4596 66.4945 70.498 66.4945 77.9467 66.4945 85.3955 72.5329 91.4339 79.9816 91.4339ZM79.9816 96.8832C90.44 96.8832 98.9182 88.4051 98.9182 77.9467 98.9182 67.4883 90.44 59.0102 79.9816 59.0102 69.5233 59.0102 61.0451 67.4883 61.0451 77.9467 61.0451 88.4051 69.5233 96.8832 79.9816 96.8832Z" fill="#FFFFFF" fill-rule="evenodd" transform="matrix(1 0 0 1.00031 1666 1844)"/><path d="M98.2312 87.9824 106.908 96.8185 99.4836 104.191 90.8072 95.3552 98.2312 87.9824Z" fill="#FFFFFF" fill-rule="evenodd" transform="matrix(1 0 0 1.00031 1666 1844)"/><path d="M89.2948 75.2193C88.4933 75.8478 87.4802 76.2173 86.3826 76.204 83.8242 76.1732 81.7751 74.0741 81.806 71.5158 81.8188 70.4569 82.1859 69.4853 82.793 68.7123 81.9474 68.4591 81.0528 68.3182 80.1261 68.307 74.7755 68.2425 70.3855 72.5278 70.321 77.8784 70.2564 83.2292 74.5416 87.6191 79.8924 87.6837 85.2431 87.7483 89.633 83.463 89.6975 78.1123 89.7097 77.1066 89.5681 76.1348 89.2948 75.2193Z" fill="#FFFFFF" fill-rule="evenodd" transform="matrix(1 0 0 1.00031 1666 1844)"/></g></g></g><text fill="#FFFFFF" font-family="Arial,Arial_MSFontService,sans-serif" font-weight="400" font-size="32" transform="matrix(1 0 0 1 1848.45 1894)">ORD </text><text fill="#FFFFFF" font-family="Arial,Arial_MSFontService,sans-serif" font-weight="400" font-size="32" transform="matrix(1 0 0 1 1783.41 1933)">Discovery API</text><rect x="731" y="1254" width="329" height="106" fill="#008FD3"/><g><g><g><path d="M55.3669 37.4032C55.4872 36.5443 55.5494 35.6668 55.5494 34.7747 55.5494 34.7504 55.5494 34.7261 55.5493 34.7018L60.5239 34.7018C60.5238 34.7261 60.5238 34.7504 60.5238 34.7747 60.5238 35.6668 60.586 36.5443 60.7063 37.4032L55.3669 37.4032ZM39.5149 53.3509 39.5149 37.4032 55.3669 37.4032C54.2141 45.6316 47.7278 52.1499 39.5149 53.3509ZM39.5149 58.7228 39.5149 53.3509C38.6328 53.4799 37.7309 53.5475 36.8135 53.5494L36.8135 37.4032 36.8135 34.7018 39.5149 34.7018 55.5493 34.7018C55.51 24.3663 47.1194 16 36.7747 16 26.4057 16 18 24.4057 18 34.7747 18 45.1437 26.4057 53.5494 36.7747 53.5494 36.7876 53.5494 36.8006 53.5494 36.8135 53.5494L36.8135 58.5244C36.8006 58.5243 36.7876 58.5243 36.7747 58.5243 26.4057 58.5243 18 66.93 18 77.299 18 87.6681 26.4057 96.0738 36.7747 96.0738 47.1437 96.0738 55.5494 87.6681 55.5494 77.299 55.5494 77.2747 55.5494 77.2504 55.5493 77.2261L76.6365 77.2261 79.3379 77.2261 79.3379 74.5247 79.3379 53.5494C89.6888 53.5281 98.0733 45.1306 98.0733 34.7747 98.0733 24.4057 89.6676 16 79.2985 16 68.9538 16 60.5632 24.3663 60.5239 34.7018L76.6365 34.7018 79.3379 34.7018 79.3379 37.4032 79.3379 53.5494C79.3247 53.5494 79.3116 53.5494 79.2985 53.5494 78.3948 53.5494 77.506 53.4856 76.6365 53.3621L76.6365 37.4032 60.7063 37.4032C61.8627 45.6577 68.3866 52.1912 76.6365 53.3621L76.6365 74.5247 55.3459 74.5247C54.1373 66.3652 47.6792 59.9167 39.5149 58.7228ZM55.3459 74.5247C55.4765 75.4067 55.5458 76.3087 55.5493 77.2261L39.5149 77.2261 36.8135 77.2261 36.8135 74.5247 36.8135 58.5244C37.7309 58.5262 38.6328 58.5939 39.5149 58.7228L39.5149 74.5247 55.3459 74.5247Z" fill="#FFFFFF" fill-rule="evenodd" transform="matrix(1.00862 0 0 1 726 1250)"/><path d="M79.2981 90.6525C86.6833 90.6525 92.6702 84.6658 92.6702 77.2806 92.6702 69.8955 86.6833 63.9087 79.2981 63.9087 71.913 63.9087 65.9262 69.8955 65.9262 77.2806 65.9262 84.6658 71.913 90.6525 79.2981 90.6525ZM79.2981 96.0554C89.6672 96.0554 98.073 87.6497 98.073 77.2806 98.073 66.9116 89.6672 58.5059 79.2981 58.5059 68.9292 58.5059 60.5234 66.9116 60.5234 77.2806 60.5234 87.6497 68.9292 96.0554 79.2981 96.0554Z" fill="#FFFFFF" fill-rule="evenodd" transform="matrix(1.00862 0 0 1 726 1250)"/><path d="M97.3918 87.2306 105.994 95.9911 98.6335 103.301 90.0312 94.5404 97.3918 87.2306Z" fill="#FFFFFF" fill-rule="evenodd" transform="matrix(1.00862 0 0 1 726 1250)"/><path d="M88.5318 74.5765C87.7371 75.1996 86.7327 75.566 85.6445 75.5528 83.1078 75.5222 81.0763 73.4411 81.1069 70.9046 81.1196 69.8548 81.4835 68.8915 82.0855 68.1251 81.2471 67.8741 80.3601 67.7344 79.4414 67.7233 74.1365 67.6593 69.784 71.908 69.72 77.2129 69.656 82.5179 73.9046 86.8704 79.2096 86.9345 84.5147 86.9985 88.8671 82.7497 88.9311 77.4448 88.9432 76.4477 88.8027 75.4842 88.5318 74.5765Z" fill="#FFFFFF" fill-rule="evenodd" transform="matrix(1.00862 0 0 1 726 1250)"/></g></g></g><text fill="#FFFFFF" font-family="Arial,Arial_MSFontService,sans-serif" font-weight="400" font-size="32" transform="matrix(1 0 0 1 904.24 1300)">ORD </text><text fill="#FFFFFF" font-family="Arial,Arial_MSFontService,sans-serif" font-weight="400" font-size="32" transform="matrix(1 0 0 1 849.813 1339)">Provider API</text><rect x="1381" y="1244" width="329" height="105" fill="#008FD3"/><g><g><g><path d="M55.8441 37.7256C55.9655 36.8593 56.0282 35.9742 56.0282 35.0744 56.0282 35.0499 56.0282 35.0254 56.0281 35.0009L61.0456 35.0009C61.0455 35.0254 61.0455 35.0499 61.0455 35.0744 61.0455 35.9742 61.1082 36.8593 61.2296 37.7256L55.8441 37.7256ZM39.8555 53.8108 39.8555 37.7256 55.8441 37.7256C54.6814 46.0249 48.1392 52.5994 39.8555 53.8108ZM39.8555 59.229 39.8555 53.8108C38.9658 53.9409 38.0561 54.0091 37.1308 54.011L37.1308 37.7256 37.1308 35.0009 39.8555 35.0009 56.0281 35.0009C55.9885 24.5763 47.5255 16.1379 37.0917 16.1379 26.6333 16.1379 18.1552 24.6161 18.1552 35.0744 18.1552 45.5328 26.6333 54.011 37.0917 54.011 37.1047 54.011 37.1178 54.011 37.1308 54.011L37.1308 59.0289C37.1178 59.0288 37.1047 59.0288 37.0917 59.0288 26.6333 59.0288 18.1552 67.5069 18.1552 77.9653 18.1552 88.4237 26.6333 96.9018 37.0917 96.9018 47.5501 96.9018 56.0282 88.4237 56.0282 77.9653 56.0282 77.9408 56.0282 77.9163 56.0281 77.8918L77.2971 77.8918 80.0218 77.8918 80.0218 75.1671 80.0218 54.011C90.4618 53.9895 98.9185 45.5196 98.9185 35.0744 98.9185 24.6161 90.4404 16.1379 79.982 16.1379 69.5481 16.1379 61.0852 24.5763 61.0456 35.0009L77.2971 35.0009 80.0218 35.0009 80.0218 37.7256 80.0218 54.011C80.0084 54.011 79.9952 54.011 79.982 54.011 79.0705 54.011 78.1741 53.9466 77.2971 53.8221L77.2971 37.7256 61.2296 37.7256C62.3959 46.0512 68.9761 52.6411 77.2971 53.8221L77.2971 75.1671 55.823 75.1671C54.6039 66.9372 48.0902 60.4332 39.8555 59.229ZM55.823 75.1671C55.9547 76.0567 56.0246 76.9664 56.0281 77.8918L39.8555 77.8918 37.1308 77.8918 37.1308 75.1671 37.1308 59.0289C38.0561 59.0307 38.9658 59.099 39.8555 59.229L39.8555 75.1671 55.823 75.1671Z" fill="#FFFFFF" fill-rule="evenodd" transform="matrix(1 0 0 1.00031 1376 1239)"/><path d="M79.9816 91.4339C87.4305 91.4339 93.4689 85.3955 93.4689 77.9467 93.4689 70.498 87.4305 64.4596 79.9816 64.4596 72.5329 64.4596 66.4945 70.498 66.4945 77.9467 66.4945 85.3955 72.5329 91.4339 79.9816 91.4339ZM79.9816 96.8832C90.44 96.8832 98.9182 88.4051 98.9182 77.9467 98.9182 67.4883 90.44 59.0102 79.9816 59.0102 69.5233 59.0102 61.0451 67.4883 61.0451 77.9467 61.0451 88.4051 69.5233 96.8832 79.9816 96.8832Z" fill="#FFFFFF" fill-rule="evenodd" transform="matrix(1 0 0 1.00031 1376 1239)"/><path d="M98.2312 87.9824 106.908 96.8185 99.4836 104.191 90.8072 95.3552 98.2312 87.9824Z" fill="#FFFFFF" fill-rule="evenodd" transform="matrix(1 0 0 1.00031 1376 1239)"/><path d="M89.2948 75.2193C88.4933 75.8478 87.4802 76.2173 86.3826 76.204 83.8242 76.1732 81.7751 74.0741 81.806 71.5158 81.8188 70.4569 82.1859 69.4853 82.793 68.7123 81.9474 68.4591 81.0528 68.3182 80.1261 68.307 74.7755 68.2425 70.3855 72.5278 70.321 77.8784 70.2564 83.2292 74.5416 87.6191 79.8924 87.6837 85.2431 87.7483 89.633 83.463 89.6975 78.1123 89.7097 77.1066 89.5681 76.1348 89.2948 75.2193Z" fill="#FFFFFF" fill-rule="evenodd" transform="matrix(1 0 0 1.00031 1376 1239)"/></g></g></g><text fill="#FFFFFF" font-family="Arial,Arial_MSFontService,sans-serif" font-weight="400" font-size="32" transform="matrix(1 0 0 1 1553.95 1289)">ORD </text><text fill="#FFFFFF" font-family="Arial,Arial_MSFontService,sans-serif" font-weight="400" font-size="32" transform="matrix(1 0 0 1 1499.52 1328)">Provider API</text><rect x="627" y="1754" width="105" height="329" fill="#008FD3"/><g><g><g><path d="M55.8441 37.7256C55.9655 36.8593 56.0282 35.9742 56.0282 35.0744 56.0282 35.0499 56.0282 35.0254 56.0281 35.0009L61.0456 35.0009C61.0455 35.0254 61.0455 35.0499 61.0455 35.0744 61.0455 35.9742 61.1082 36.8593 61.2296 37.7256L55.8441 37.7256ZM39.8555 53.8108 39.8555 37.7256 55.8441 37.7256C54.6814 46.0249 48.1392 52.5994 39.8555 53.8108ZM39.8555 59.229 39.8555 53.8108C38.9658 53.9409 38.0561 54.0091 37.1308 54.011L37.1308 37.7256 37.1308 35.0009 39.8555 35.0009 56.0281 35.0009C55.9885 24.5763 47.5255 16.1379 37.0917 16.1379 26.6333 16.1379 18.1552 24.6161 18.1552 35.0744 18.1552 45.5328 26.6333 54.011 37.0917 54.011 37.1047 54.011 37.1178 54.011 37.1308 54.011L37.1308 59.0289C37.1178 59.0288 37.1047 59.0288 37.0917 59.0288 26.6333 59.0288 18.1552 67.5069 18.1552 77.9653 18.1552 88.4237 26.6333 96.9018 37.0917 96.9018 47.5501 96.9018 56.0282 88.4237 56.0282 77.9653 56.0282 77.9408 56.0282 77.9163 56.0281 77.8918L77.2971 77.8918 80.0218 77.8918 80.0218 75.1671 80.0218 54.011C90.4618 53.9895 98.9185 45.5196 98.9185 35.0744 98.9185 24.6161 90.4404 16.1379 79.982 16.1379 69.5481 16.1379 61.0852 24.5763 61.0456 35.0009L77.2971 35.0009 80.0218 35.0009 80.0218 37.7256 80.0218 54.011C80.0084 54.011 79.9952 54.011 79.982 54.011 79.0705 54.011 78.1741 53.9466 77.2971 53.8221L77.2971 37.7256 61.2296 37.7256C62.3959 46.0512 68.9761 52.6411 77.2971 53.8221L77.2971 75.1671 55.823 75.1671C54.6039 66.9372 48.0902 60.4332 39.8555 59.229ZM55.823 75.1671C55.9547 76.0567 56.0246 76.9664 56.0281 77.8918L39.8555 77.8918 37.1308 77.8918 37.1308 75.1671 37.1308 59.0289C38.0561 59.0307 38.9658 59.099 39.8555 59.229L39.8555 75.1671 55.823 75.1671Z" fill="#FFFFFF" fill-rule="evenodd" transform="matrix(6.12323e-17 1 -1.00031 6.12512e-17 737 1749)"/><path d="M79.9816 91.4339C87.4305 91.4339 93.4689 85.3955 93.4689 77.9467 93.4689 70.498 87.4305 64.4596 79.9816 64.4596 72.5329 64.4596 66.4945 70.498 66.4945 77.9467 66.4945 85.3955 72.5329 91.4339 79.9816 91.4339ZM79.9816 96.8832C90.44 96.8832 98.9182 88.4051 98.9182 77.9467 98.9182 67.4883 90.44 59.0102 79.9816 59.0102 69.5233 59.0102 61.0451 67.4883 61.0451 77.9467 61.0451 88.4051 69.5233 96.8832 79.9816 96.8832Z" fill="#FFFFFF" fill-rule="evenodd" transform="matrix(6.12323e-17 1 -1.00031 6.12512e-17 737 1749)"/><path d="M98.2312 87.9824 106.908 96.8185 99.4836 104.191 90.8072 95.3552 98.2312 87.9824Z" fill="#FFFFFF" fill-rule="evenodd" transform="matrix(6.12323e-17 1 -1.00031 6.12512e-17 737 1749)"/><path d="M89.2948 75.2193C88.4933 75.8478 87.4802 76.2173 86.3826 76.204 83.8242 76.1732 81.7751 74.0741 81.806 71.5158 81.8188 70.4569 82.1859 69.4853 82.793 68.7123 81.9474 68.4591 81.0528 68.3182 80.1261 68.307 74.7755 68.2425 70.3855 72.5278 70.321 77.8784 70.2564 83.2292 74.5416 87.6191 79.8924 87.6837 85.2431 87.7483 89.633 83.463 89.6975 78.1123 89.7097 77.1066 89.5681 76.1348 89.2948 75.2193Z" fill="#FFFFFF" fill-rule="evenodd" transform="matrix(6.12323e-17 1 -1.00031 6.12512e-17 737 1749)"/></g></g></g><text fill="#FFFFFF" font-family="Arial,Arial_MSFontService,sans-serif" font-weight="400" font-size="32" transform="matrix(6.12323e-17 1 -1 6.12323e-17 686.708 1927)">ORD </text><text fill="#FFFFFF" font-family="Arial,Arial_MSFontService,sans-serif" font-weight="400" font-size="32" transform="matrix(6.12323e-17 1 -1 6.12323e-17 647.708 1873)">Provider API</text><path d="M2346.5 1135.5 2346.5 1074.5 2823.5 1074.5 2823.5 1135.5 2823.5 1196.5 2346.5 1196.5Z" stroke="#4FB81C" stroke-width="9.16667" stroke-miterlimit="8" fill="#DAF7CB" fill-rule="evenodd"/><text font-family="Arial,Arial_MSFontService,sans-serif" font-weight="400" font-size="41" transform="matrix(1 0 0 1 2453.51 1126)">SAP Business </text><text font-family="Arial,Arial_MSFontService,sans-serif" font-weight="400" font-size="41" transform="matrix(1 0 0 1 2481.01 1176)">Data Cloud</text><path d="M2346.5 1238.5 2346.5 1196.5 2823.5 1196.5 2823.5 1238.5 2823.5 1280.5 2346.5 1280.5Z" stroke="#4FB81C" stroke-width="9.16667" stroke-miterlimit="8" fill="#DAF7CB" fill-rule="evenodd"/><text font-family="Arial,Arial_MSFontService,sans-serif" font-weight="400" font-size="41" transform="matrix(1 0 0 1 2440.91 1253)">SAP Event Hub</text><path d="M2346.5 1319 2346.5 1282.5 2823.5 1282.5 2823.5 1319 2823.5 1355.5 2346.5 1355.5Z" stroke="#4FB81C" stroke-width="9.16667" stroke-miterlimit="8" fill="#DAF7CB" fill-rule="evenodd"/><text font-family="Arial,Arial_MSFontService,sans-serif" font-weight="400" font-size="41" transform="matrix(1 0 0 1 2563.51 1334)">…</text><path d="M0-5.72917 172.53-5.72917C175.695-5.72917 178.26-3.16413 178.26 0L178.26 1345.75 172.53 1340.02 240.988 1340.02 240.988 1351.48 172.53 1351.48C169.366 1351.48 166.801 1348.92 166.801 1345.75L166.801 0 172.53 5.72917 0 5.72917ZM235.259 1328.57 269.634 1345.75 235.259 1362.94Z" transform="matrix(-1 1.22465e-16 1.22465e-16 1 2292.13 556.5)"/></g></svg>