<svg width="2740" height="1181" xmlns="http://www.w3.org/2000/svg" xmlns:xlink="http://www.w3.org/1999/xlink" xml:space="preserve" overflow="hidden"><g transform="translate(-839 -1020)"><rect x="839" y="1405" width="2723" height="796" fill="#F2F2F2"/><text font-family="Arial,Arial_MSFontService,sans-serif" font-weight="400" font-size="83" transform="matrix(1 0 0 1 2827.74 1511)">System Landscape</text><path d="M6.87497-0.0190076 8.10477 444.794-5.64517 444.832-6.87497 0.0190076ZM21.8357 437.881 1.32484 479.188-19.4141 437.995Z" transform="matrix(-1 0 0 1 1729.32 1153)"/><path d="M6.87416-0.107557 12.2792 345.336-1.46913 345.551-6.87416 0.107557ZM25.9199 338.247 5.94281 379.815-15.325 338.892Z" transform="matrix(-1 0 0 1 1174.94 1251)"/><path d="M1478.5 1922.5 1586 1707.5 1869 1707.5 1976.5 1922.5 1869 2137.5 1586 2137.5Z" stroke="#008FD3" stroke-width="9.16667" stroke-miterlimit="8" fill="#C3ECFF" fill-rule="evenodd"/><text fill="#004769" font-family="Arial,Arial_MSFontService,sans-serif" font-weight="400" font-size="73" transform="matrix(1 0 0 1 1645.7 1905)">ORD </text><text fill="#004769" font-family="Arial,Arial_MSFontService,sans-serif" font-weight="400" font-size="73" transform="matrix(1 0 0 1 1590.7 1993)">Provider</text><path d="M2394.7 1911.46 2054.56 1408.33 2065.95 1400.63 2406.09 1903.76ZM2047.02 1421.72 2041 1376 2081.19 1398.62Z"/><path d="M917.5 1922.5 1025 1707.5 1308 1707.5 1415.5 1922.5 1308 2137.5 1025 2137.5Z" stroke="#008FD3" stroke-width="9.16667" stroke-miterlimit="8" fill="#C3ECFF" fill-rule="evenodd"/><text fill="#004769" font-family="Arial,Arial_MSFontService,sans-serif" font-weight="400" font-size="73" transform="matrix(1 0 0 1 1084.45 1905)">ORD </text><text fill="#004769" font-family="Arial,Arial_MSFontService,sans-serif" font-weight="400" font-size="73" transform="matrix(1 0 0 1 1029.45 1993)">Provider</text><path d="M2401.5 1908.5 2516 1679.5 2866 1679.5 2980.5 1908.5 2866 2137.5 2516 2137.5Z" stroke="#4FB81C" stroke-width="9.16667" stroke-miterlimit="8" fill="#DAF7CB" fill-rule="evenodd"/><text font-family="Arial,Arial_MSFontService,sans-serif" font-weight="400" font-size="73" transform="matrix(1 0 0 1 2608.75 1891)">ORD</text><text font-family="Arial,Arial_MSFontService,sans-serif" font-weight="400" font-size="73" transform="matrix(1 0 0 1 2521.09 1979)">Consumer</text><path d="M1040.5 1163 1109.75 1024.5 2346.25 1024.5 2415.5 1163 2346.25 1301.5 1109.75 1301.5Z" stroke="#E35500" stroke-width="9.16667" stroke-miterlimit="8" fill="#FFDCC6" fill-rule="evenodd"/><text font-family="Arial,Arial_MSFontService,sans-serif" font-weight="400" font-size="83" transform="matrix(1 0 0 1 1420.45 1193)">ORD Aggregator</text><path d="M2916.5 1163 2977.25 1041.5 3268.75 1041.5 3329.5 1163 3268.75 1284.5 2977.25 1284.5Z" stroke="#760A85" stroke-width="6.875" stroke-miterlimit="8" fill="#F2BBFA" fill-rule="evenodd"/><text font-family="Arial,Arial_MSFontService,sans-serif" font-weight="400" font-size="46" transform="matrix(1 0 0 1 3065.5 1125)">Other</text><text font-family="Arial,Arial_MSFontService,sans-serif" font-weight="400" font-size="46" transform="matrix(1 0 0 1 3038.57 1180)">(central) </text><text font-family="Arial,Arial_MSFontService,sans-serif" font-weight="400" font-size="46" transform="matrix(1 0 0 1 2995.6 1235)">Repositories</text><path d="M2415 1155.12 2881.27 1155.13 2881.27 1168.88 2415 1168.87ZM2874.4 1141.38 2915.65 1162 2874.4 1182.63Z"/><rect x="2574" y="1136" width="250" height="58.9998" fill="#BFBFBF"/><text font-family="Arial,Arial_MSFontService,sans-serif" font-weight="400" font-size="37" transform="matrix(1 0 0 1 2617.74 1180)">integrates</text><rect x="1001" y="1627" width="329" height="105" fill="#008FD3"/><g><g><g><path d="M55.367 37.4033C55.4873 36.5444 55.5495 35.6669 55.5495 34.7748 55.5495 34.7505 55.5495 34.7262 55.5494 34.7019L60.524 34.7019C60.5239 34.7262 60.5239 34.7505 60.5239 34.7748 60.5239 35.6669 60.5861 36.5444 60.7064 37.4033L55.367 37.4033ZM39.515 53.351 39.515 37.4033 55.367 37.4033C54.2142 45.6317 47.7279 52.15 39.515 53.351ZM39.515 58.7229 39.515 53.351C38.6329 53.48 37.731 53.5476 36.8136 53.5495L36.8136 37.4033 36.8136 34.7019 39.515 34.7019 55.5494 34.7019C55.5101 24.3663 47.1195 16 36.7748 16 26.4057 16 18 24.4057 18 34.7748 18 45.1438 26.4057 53.5495 36.7748 53.5495 36.7877 53.5495 36.8007 53.5495 36.8136 53.5495L36.8136 58.5245C36.8007 58.5244 36.7877 58.5244 36.7748 58.5244 26.4057 58.5244 18 66.9301 18 77.2991 18 87.6681 26.4057 96.0739 36.7748 96.0739 47.1438 96.0739 55.5495 87.6681 55.5495 77.2991 55.5495 77.2748 55.5495 77.2505 55.5494 77.2262L76.6366 77.2262 79.338 77.2262 79.338 74.5248 79.338 53.5495C89.6889 53.5282 98.0734 45.1307 98.0734 34.7748 98.0734 24.4057 89.6677 16 79.2986 16 68.9539 16 60.5633 24.3663 60.524 34.7019L76.6366 34.7019 79.338 34.7019 79.338 37.4033 79.338 53.5495C79.3248 53.5495 79.3117 53.5495 79.2986 53.5495 78.3949 53.5495 77.5061 53.4857 76.6366 53.3622L76.6366 37.4033 60.7064 37.4033C61.8628 45.6578 68.3867 52.1913 76.6366 53.3622L76.6366 74.5248 55.346 74.5248C54.1374 66.3653 47.6793 59.9168 39.515 58.7229ZM55.346 74.5248C55.4766 75.4068 55.5459 76.3088 55.5494 77.2262L39.515 77.2262 36.8136 77.2262 36.8136 74.5248 36.8136 58.5245C37.731 58.5263 38.6329 58.594 39.515 58.7229L39.515 74.5248 55.346 74.5248Z" fill="#FFFFFF" fill-rule="evenodd" transform="matrix(1 0 0 1.00892 997 1622)"/><path d="M79.2982 90.6526C86.6834 90.6526 92.6702 84.6658 92.6702 77.2807 92.6702 69.8956 86.6834 63.9088 79.2982 63.9088 71.9131 63.9088 65.9263 69.8956 65.9263 77.2807 65.9263 84.6658 71.9131 90.6526 79.2982 90.6526ZM79.2982 96.0555C89.6673 96.0555 98.0731 87.6497 98.0731 77.2807 98.0731 66.9117 89.6673 58.506 79.2982 58.506 68.9293 58.506 60.5235 66.9117 60.5235 77.2807 60.5235 87.6497 68.9293 96.0555 79.2982 96.0555Z" fill="#FFFFFF" fill-rule="evenodd" transform="matrix(1 0 0 1.00892 997 1622)"/><path d="M97.3919 87.2306 105.994 95.9913 98.6336 103.301 90.0313 94.5405 97.3919 87.2306Z" fill="#FFFFFF" fill-rule="evenodd" transform="matrix(1 0 0 1.00892 997 1622)"/><path d="M88.5318 74.5766C87.7371 75.1997 86.7327 75.5661 85.6445 75.5529 83.1079 75.5223 81.0764 73.4412 81.107 70.9047 81.1197 69.8549 81.4836 68.8916 82.0856 68.1252 81.2472 67.8742 80.3602 67.7345 79.4415 67.7234 74.1366 67.6594 69.7841 71.9081 69.7201 77.213 69.6561 82.518 73.9047 86.8704 79.2097 86.9345 84.5147 86.9985 88.8671 82.7498 88.9311 77.4449 88.9432 76.4478 88.8028 75.4843 88.5318 74.5766Z" fill="#FFFFFF" fill-rule="evenodd" transform="matrix(1 0 0 1.00892 997 1622)"/></g></g></g><text fill="#FFFFFF" font-family="Arial,Arial_MSFontService,sans-serif" font-weight="400" font-size="32" transform="matrix(1 0 0 1 1174.73 1672)">ORD </text><text fill="#FFFFFF" font-family="Arial,Arial_MSFontService,sans-serif" font-weight="400" font-size="32" transform="matrix(1 0 0 1 1120.3 1711)">Provider API</text><rect x="1557" y="1638" width="330" height="105" fill="#008FD3"/><g><g><g><path d="M55.8441 37.7256C55.9655 36.8593 56.0282 35.9742 56.0282 35.0744 56.0282 35.0499 56.0282 35.0254 56.0281 35.0009L61.0456 35.0009C61.0455 35.0254 61.0455 35.0499 61.0455 35.0744 61.0455 35.9742 61.1082 36.8593 61.2296 37.7256L55.8441 37.7256ZM39.8555 53.8108 39.8555 37.7256 55.8441 37.7256C54.6814 46.0249 48.1392 52.5994 39.8555 53.8108ZM39.8555 59.229 39.8555 53.8108C38.9658 53.9409 38.0561 54.0091 37.1308 54.011L37.1308 37.7256 37.1308 35.0009 39.8555 35.0009 56.0281 35.0009C55.9885 24.5763 47.5255 16.1379 37.0917 16.1379 26.6333 16.1379 18.1552 24.6161 18.1552 35.0744 18.1552 45.5328 26.6333 54.011 37.0917 54.011 37.1047 54.011 37.1178 54.011 37.1308 54.011L37.1308 59.0289C37.1178 59.0288 37.1047 59.0288 37.0917 59.0288 26.6333 59.0288 18.1552 67.5069 18.1552 77.9653 18.1552 88.4237 26.6333 96.9018 37.0917 96.9018 47.5501 96.9018 56.0282 88.4237 56.0282 77.9653 56.0282 77.9408 56.0282 77.9163 56.0281 77.8918L77.2971 77.8918 80.0218 77.8918 80.0218 75.1671 80.0218 54.011C90.4618 53.9895 98.9185 45.5196 98.9185 35.0744 98.9185 24.6161 90.4404 16.1379 79.982 16.1379 69.5481 16.1379 61.0852 24.5763 61.0456 35.0009L77.2971 35.0009 80.0218 35.0009 80.0218 37.7256 80.0218 54.011C80.0084 54.011 79.9952 54.011 79.982 54.011 79.0705 54.011 78.1741 53.9466 77.2971 53.8221L77.2971 37.7256 61.2296 37.7256C62.3959 46.0512 68.9761 52.6411 77.2971 53.8221L77.2971 75.1671 55.823 75.1671C54.6039 66.9372 48.0902 60.4332 39.8555 59.229ZM55.823 75.1671C55.9547 76.0567 56.0246 76.9664 56.0281 77.8918L39.8555 77.8918 37.1308 77.8918 37.1308 75.1671 37.1308 59.0289C38.0561 59.0307 38.9658 59.099 39.8555 59.229L39.8555 75.1671 55.823 75.1671Z" fill="#FFFFFF" fill-rule="evenodd" transform="matrix(1 0 0 1.0003 1553 1633)"/><path d="M79.9816 91.4339C87.4305 91.4339 93.4689 85.3955 93.4689 77.9467 93.4689 70.498 87.4305 64.4596 79.9816 64.4596 72.5329 64.4596 66.4945 70.498 66.4945 77.9467 66.4945 85.3955 72.5329 91.4339 79.9816 91.4339ZM79.9816 96.8832C90.44 96.8832 98.9182 88.4051 98.9182 77.9467 98.9182 67.4883 90.44 59.0102 79.9816 59.0102 69.5233 59.0102 61.0451 67.4883 61.0451 77.9467 61.0451 88.4051 69.5233 96.8832 79.9816 96.8832Z" fill="#FFFFFF" fill-rule="evenodd" transform="matrix(1 0 0 1.0003 1553 1633)"/><path d="M98.2312 87.9824 106.908 96.8185 99.4836 104.191 90.8072 95.3552 98.2312 87.9824Z" fill="#FFFFFF" fill-rule="evenodd" transform="matrix(1 0 0 1.0003 1553 1633)"/><path d="M89.2948 75.2193C88.4933 75.8478 87.4802 76.2173 86.3826 76.204 83.8242 76.1732 81.7751 74.0741 81.806 71.5158 81.8188 70.4569 82.1859 69.4853 82.793 68.7123 81.9474 68.4591 81.0528 68.3182 80.1261 68.307 74.7755 68.2425 70.3855 72.5278 70.321 77.8784 70.2564 83.2292 74.5416 87.6191 79.8924 87.6837 85.2431 87.7483 89.633 83.463 89.6975 78.1123 89.7097 77.1066 89.5681 76.1348 89.2948 75.2193Z" fill="#FFFFFF" fill-rule="evenodd" transform="matrix(1 0 0 1.0003 1553 1633)"/></g></g></g><text fill="#FFFFFF" font-family="Arial,Arial_MSFontService,sans-serif" font-weight="400" font-size="32" transform="matrix(1 0 0 1 1730.93 1683)">ORD </text><text fill="#FFFFFF" font-family="Arial,Arial_MSFontService,sans-serif" font-weight="400" font-size="32" transform="matrix(1 0 0 1 1676.5 1722)">Provider API</text><rect x="1795" y="1219" width="492" height="157" fill="#E35500"/><g><g><g><path d="M83.0504 56.1048C83.2309 54.8165 83.3242 53.5002 83.3242 52.1621 83.3242 52.1256 83.3242 52.0892 83.324 52.0527L90.7859 52.0527C90.7858 52.0892 90.7858 52.1256 90.7858 52.1621 90.7858 53.5002 90.8791 54.8165 91.0595 56.1048L83.0504 56.1048ZM59.2724 80.0264 59.2724 56.1048 83.0504 56.1048C81.3212 68.4474 71.5917 78.2249 59.2724 80.0264ZM59.2724 88.0843 59.2724 80.0264C57.9492 80.2199 56.5964 80.3213 55.2203 80.3241L55.2203 56.1048 55.2203 52.0527 59.2724 52.0527 83.324 52.0527C83.265 36.5495 70.6791 24 55.1621 24 39.6086 24 27 36.6086 27 52.1621 27 67.7156 39.6086 80.3241 55.1621 80.3241 55.1814 80.3241 55.2009 80.3241 55.2203 80.3241L55.2203 87.7866C55.2009 87.7865 55.1814 87.7865 55.1621 87.7865 39.6086 87.7865 27 100.395 27 115.949 27 131.502 39.6086 144.111 55.1621 144.111 70.7156 144.111 83.3242 131.502 83.3242 115.949 83.3242 115.912 83.3242 115.876 83.324 115.839L114.955 115.839 119.007 115.839 119.007 111.787 119.007 80.3241C134.533 80.2922 147.11 67.6959 147.11 52.1621 147.11 36.6086 134.501 24 118.948 24 103.431 24 90.8449 36.5495 90.7859 52.0527L114.955 52.0527 119.007 52.0527 119.007 56.1048 119.007 80.3241C118.987 80.3241 118.967 80.3241 118.948 80.3241 117.592 80.3241 116.259 80.2284 114.955 80.0432L114.955 56.1048 91.0595 56.1048C92.7941 68.4866 102.58 78.2868 114.955 80.0432L114.955 111.787 83.0189 111.787C81.206 99.5479 71.5188 89.8751 59.2724 88.0843ZM83.0189 111.787C83.2148 113.11 83.3187 114.463 83.324 115.839L59.2724 115.839 55.2203 115.839 55.2203 111.787 55.2203 87.7866C56.5964 87.7893 57.9492 87.8909 59.2724 88.0843L59.2724 111.787 83.0189 111.787Z" fill="#FFFFFF" fill-rule="evenodd" transform="matrix(1 0 0 1 1789 1212)"/><path d="M118.947 135.979C130.025 135.979 139.005 126.999 139.005 115.921 139.005 104.843 130.025 95.8631 118.947 95.8631 107.87 95.8631 98.8894 104.843 98.8894 115.921 98.8894 126.999 107.87 135.979 118.947 135.979ZM118.947 144.083C134.501 144.083 147.109 131.474 147.109 115.921 147.109 100.367 134.501 87.7589 118.947 87.7589 103.394 87.7589 90.7851 100.367 90.7851 115.921 90.7851 131.474 103.394 144.083 118.947 144.083Z" fill="#FFFFFF" fill-rule="evenodd" transform="matrix(1 0 0 1 1789 1212)"/><path d="M146.088 130.846 158.991 143.987 147.95 154.952 135.047 141.811 146.088 130.846Z" fill="#FFFFFF" fill-rule="evenodd" transform="matrix(1 0 0 1 1789 1212)"/><path d="M132.798 111.865C131.606 112.799 130.099 113.349 128.467 113.329 124.662 113.283 121.615 110.162 121.66 106.357 121.679 104.782 122.225 103.337 123.128 102.188 121.871 101.811 120.54 101.602 119.162 101.585 111.205 101.489 104.676 107.862 104.58 115.819 104.484 123.777 110.857 130.306 118.814 130.402 126.772 130.498 133.301 124.125 133.397 116.167 133.415 114.672 133.204 113.226 132.798 111.865Z" fill="#FFFFFF" fill-rule="evenodd" transform="matrix(1 0 0 1 1789 1212)"/></g></g></g><text fill="#FFFFFF" font-family="Arial,Arial_MSFontService,sans-serif" font-weight="400" font-size="46" transform="matrix(1 0 0 1 2063.61 1289)">ORD </text><text fill="#FFFFFF" font-family="Arial,Arial_MSFontService,sans-serif" font-weight="400" font-size="46" transform="matrix(1 0 0 1 1971.07 1344)">Discovery API</text></g></svg>