<?xml version="1.0" encoding="UTF-8" standalone="no"?>
<svg
   width="128.438"
   height="183.532"
   viewBox="0 0 139.83795 199.822"
   fill="none"
   version="1.1"
   id="svg26"
   sodipodi:docname="ORD_Vertical_Color_Logo.svg"
   inkscape:version="1.4 (86a8ad7, 2024-10-11)"
   xmlns:inkscape="http://www.inkscape.org/namespaces/inkscape"
   xmlns:sodipodi="http://sodipodi.sourceforge.net/DTD/sodipodi-0.dtd"
   xmlns="http://www.w3.org/2000/svg"
   xmlns:svg="http://www.w3.org/2000/svg">
  <sodipodi:namedview
     id="namedview26"
     pagecolor="#ffffff"
     bordercolor="#000000"
     borderopacity="0.25"
     inkscape:showpageshadow="2"
     inkscape:pageopacity="0.0"
     inkscape:pagecheckerboard="0"
     inkscape:deskcolor="#d1d1d1"
     inkscape:zoom="4.1547085"
     inkscape:cx="15.043173"
     inkscape:cy="147.4231"
     inkscape:window-width="3840"
     inkscape:window-height="2071"
     inkscape:window-x="2391"
     inkscape:window-y="-9"
     inkscape:window-maximized="1"
     inkscape:current-layer="svg26" />
  <path
     fill-rule="evenodd"
     clip-rule="evenodd"
     d="m 67.881559,29.68425 c 0.12,-0.8589 0.182,-1.7364 0.182,-2.6285 0,-0.0243 0,-0.0486 0,-0.0729 h 4.975 c 0,0.0243 0,0.0486 0,0.0729 0,0.8921 0.062,1.7696 0.182,2.6285 z m -15.852,15.9477 v -15.9477 h 15.852 c -1.153,8.2284 -7.639,14.7467 -15.852,15.9477 z m 0,5.3719 v -5.3719 c -0.882,0.129 -1.784,0.1966 -2.702,0.1985 v -16.1462 -2.7014 h 2.702 16.034 c -0.039,-10.3355 -8.43,-18.7018005 -18.774,-18.7018005 -10.369,0 -18.775,8.4057005 -18.775,18.7747005 0,10.369 8.406,18.7747 18.775,18.7747 0.013,0 0.026,0 0.038,0 v 4.975 c -0.012,-1e-4 -0.025,-1e-4 -0.038,-1e-4 -10.369,0 -18.775,8.4057 -18.775,18.7747 0,10.369 8.406,18.775 18.775,18.775 10.369,0 18.774,-8.406 18.774,-18.775 0,-0.0243 0,-0.0486 0,-0.0729 h 21.087 2.702 v -2.7014 -20.9753 c 10.350991,-0.0213 18.734991,-8.4188 18.734991,-18.7747 0,-10.369 -8.406,-18.7747005 -18.774991,-18.7747005 -10.344,0 -18.735,8.3663005 -18.774,18.7018005 h 16.112 2.702 v 2.7014 16.1462 c -0.013,0 -0.026,0 -0.04,0 -0.903,0 -1.792,-0.0638 -2.662,-0.1873 v -15.9589 h -15.93 c 1.157,8.2545 7.681,14.788 15.93,15.9589 v 21.1626 h -21.29 c -1.209,-8.1595 -7.667,-14.608 -15.831,-15.8019 z m 15.831,15.8019 c 0.13,0.882 0.2,1.784 0.203,2.7014 h -16.034 -2.702 v -2.7014 -16.0003 c 0.918,0.0018 1.82,0.0695 2.702,0.1984 v 15.8019 z"
     fill="url(#paint0_linear_204_2049)"
     id="path1"
     style="fill:url(#paint0_linear_204_2049)" />
  <path
     fill-rule="evenodd"
     clip-rule="evenodd"
     d="m 91.812559,82.93355 c 7.385,0 13.371991,-5.9868 13.371991,-13.3719 0,-7.3851 -5.986991,-13.3719 -13.371991,-13.3719 -7.385,0 -13.372,5.9868 -13.372,13.3719 0,7.3851 5.987,13.3719 13.372,13.3719 z m 0,5.4025 c 10.368991,0 18.774991,-8.4054 18.774991,-18.7744 0,-10.369 -8.406,-18.7747 -18.774991,-18.7747 -10.369,0 -18.775,8.4057 -18.775,18.7747 0,10.369 8.406,18.7744 18.775,18.7744 z"
     fill="#3edebf"
     id="path2" />
  <path
     fill-rule="evenodd"
     clip-rule="evenodd"
     d="m 109.90655,79.51155 8.602,8.7605 -7.361,7.31 -8.602,-8.761 z"
     fill="#3edebf"
     id="path3" />
  <path
     fill-rule="evenodd"
     clip-rule="evenodd"
     d="m 101.04655,66.85755 c -0.79499,0.6231 -1.798991,0.9895 -2.887991,0.9763 -2.536,-0.0306 -4.568,-2.1117 -4.537,-4.6482 0.013,-1.0498 0.376,-2.0131 0.979,-2.7795 -0.839,-0.251 -1.726,-0.3907 -2.645,-0.4018 -5.305,-0.064 -9.657,4.1847 -9.721,9.4896 -0.064,5.305 4.185,9.6574 9.49,9.7215 5.305,0.064 9.656991,-4.1847 9.720991,-9.4896 0.012,-0.9971 -0.128,-1.9606 -0.399,-2.8683 z"
     fill="#3edebf"
     id="path4" />
  <path
     d="m 123.64755,191.81305 c -0.659,0 -1.26,-0.058 -1.685,-0.117 v -2.27 c 0.366,0.117 0.908,0.175 1.48,0.175 1.831,0 2.549,-0.688 3.091,-2.124 l 0.849,-2.241 -6.313,-15.791 h 2.812 l 3.369,8.76 c 0.44,1.201 1.319,3.779 1.407,4.101 0.117,-0.41 0.996,-2.636 1.406,-3.837 l 3.091,-9.024 h 2.798 l -7.295,18.897 c -0.865,2.241 -1.919,3.471 -5.01,3.471 z"
     fill="#000000"
     id="path5" />
  <path
     d="m 112.23355,185.28105 v -15.835 h 2.519 v 3.384 h 0.059 c 0.6,-2.695 1.919,-3.692 3.721,-3.692 0.542,0 1.025,0.088 1.259,0.147 v 2.593 c -0.322,-0.103 -0.835,-0.161 -1.318,-0.161 -2.695,0 -3.604,2.021 -3.604,5.317 v 8.247 z"
     fill="#000000"
     id="path6" />
  <path
     d="m 102.49855,185.57405 c -4.789991,0 -7.967991,-2.871 -7.967991,-8.218 0,-5.522 3.588,-8.218 7.674991,-8.218 5.127,0 6.9,4.117 6.9,7.647 0,0.425 -0.015,0.85 -0.044,1.23 H 97.298559 c 0.191,3.428 1.934,5.318 5.199991,5.318 1.934,0 3.252,-0.542 4.41,-1.89 l 1.655,1.641 c -1.553,1.743 -3.296,2.49 -6.065,2.49 z m -5.126991,-9.595 h 9.052991 c -0.278,-3.105 -1.889,-4.585 -4.336,-4.585 -2.430991,0 -4.291991,1.509 -4.716991,4.585 z"
     fill="#000000"
     id="path7" />
  <path
     d="m 84.695559,185.28005 -5.611,-15.835 h 2.827 l 3.384,10.283 c 0.293,0.879 0.777,2.403 1.026,3.238 0.234,-0.835 0.776,-2.359 1.069,-3.238 l 3.516,-10.283 h 2.812 l -5.786,15.835 z"
     fill="#000000"
     id="path8" />
  <path
     d="m 70.528559,185.57405 c -4.615,0 -7.764,-3.355 -7.764,-8.218 0,-4.848 3.149,-8.218 7.764,-8.218 4.629,0 7.778,3.37 7.778,8.218 0,4.863 -3.149,8.218 -7.778,8.218 z m -5.01,-8.218 c 0,3.97 2.197,5.977 5.01,5.977 2.827,0 5.009,-2.007 5.009,-5.977 0,-3.955 -2.182,-5.962 -5.009,-5.962 -2.813,0 -5.01,2.007 -5.01,5.962 z"
     fill="#000000"
     id="path9" />
  <path
     d="m 55.358559,185.57405 c -4.322,0 -7.617,-2.871 -7.617,-8.218 0,-5.332 3.295,-8.218 7.617,-8.218 2.827,0 4.936,1.202 6.181,3.018 l -1.86,1.494 c -0.967,-1.406 -2.314,-2.256 -4.263,-2.256 -2.885,0 -4.922,2.007 -4.922,5.962 0,3.97 2.037,5.977 4.922,5.977 1.949,0 3.296,-0.85 4.263,-2.256 l 1.86,1.494 c -1.245,1.816 -3.354,3.003 -6.181,3.003 z"
     fill="#000000"
     id="path10" />
  <path
     d="m 39.670559,185.57405 c -2.387,0 -4.643,-0.645 -6.328,-2.49 l 1.699,-1.685 c 1.421,1.538 2.842,1.992 4.629,1.992 1.714,0 3.399,-0.542 3.399,-2.285 0,-1.831 -1.626,-2.3 -3.999,-2.959 -2.373,-0.659 -5.01,-1.567 -5.01,-4.599 0,-2.871 2.256,-4.41 5.581,-4.41 2.124,0 4.204,0.704 5.566,2.095 l -1.684,1.685 c -1.172,-1.172 -2.549,-1.553 -3.882,-1.553 -1.802,0 -3.032,0.63 -3.032,2.065 0,1.465 1.655,1.949 4.028,2.608 2.241,0.63 5.01,1.45 5.01,4.863 0,2.974 -2.461,4.673 -5.977,4.673 z"
     fill="#000000"
     id="path11" />
  <path
     d="m 27.977559,185.28105 v -15.835 h 2.637 v 15.835 z m -0.44,-20.552 c 0,-1.025 0.748,-1.772 1.758,-1.772 1.026,0 1.773,0.747 1.773,1.772 0,1.026 -0.747,1.773 -1.773,1.773 -1.01,0 -1.758,-0.747 -1.758,-1.773 z"
     fill="#000000"
     id="path12" />
  <path
     d="m 7.5145588,185.28005 v -20.64 h 7.2656002 c 5.7569,0 9.9464,3.604 9.9464,10.313 0,6.724 -4.1895,10.327 -9.9464,10.327 z m 2.7832002,-2.549 h 4.3506 c 4.1455,0 7.2363,-2.256 7.2363,-7.778 0,-5.508 -3.0908,-7.764 -7.2363,-7.764 h -4.3506 z"
     fill="#000000"
     id="path13" />
  <path
     d="m 125.18655,155.57405 c -4.79,0 -7.969,-2.871 -7.969,-8.218 0,-5.522 3.589,-8.218 7.676,-8.218 5.127,0 6.899,4.117 6.899,7.647 0,0.425 -0.014,0.85 -0.044,1.23 h -11.762 c 0.19,3.428 1.933,5.318 5.2,5.318 1.933,0 3.252,-0.542 4.409,-1.89 l 1.655,1.641 c -1.552,1.743 -3.296,2.49 -6.064,2.49 z m -5.127,-9.595 h 9.053 c -0.279,-3.105 -1.89,-4.585 -4.336,-4.585 -2.432,0 -4.292,1.509 -4.717,4.585 z"
     fill="#000000"
     id="path14" />
  <path
     d="m 109.80355,155.57405 c -4.321,0 -7.617,-2.871 -7.617,-8.218 0,-5.332 3.296,-8.218 7.617,-8.218 2.827,0 4.937,1.202 6.182,3.018 l -1.861,1.494 c -0.966,-1.406 -2.314,-2.256 -4.262,-2.256 -2.886,0 -4.922,2.007 -4.922,5.962 0,3.97 2.036,5.977 4.922,5.977 1.948,0 3.296,-0.85 4.262,-2.256 l 1.861,1.494 c -1.245,1.816 -3.355,3.003 -6.182,3.003 z"
     fill="#000000"
     id="path15" />
  <path
     d="m 93.702559,155.28105 v -15.835 h 2.519 v 3.384 h 0.059 c 0.6,-2.695 1.919,-3.692 3.720001,-3.692 0.54199,0 1.02599,0.088 1.25999,0.147 v 2.593 c -0.322,-0.103 -0.835,-0.161 -1.317991,-0.161 -2.696,0 -3.604,2.021 -3.604,5.317 v 8.247 z"
     fill="#000000"
     id="path16" />
  <path
     d="m 81.903559,155.57305 c -3.355,0 -4.951,-2.241 -4.951,-5.566 v -10.562 h 2.636 v 10.049 c 0,2.3 0.85,3.75 3.281,3.75 2.491,0 4.102,-1.655 4.102,-4.629 v -9.17 h 2.637 v 15.835 h -2.52 v -3.296 h -0.058 c -0.63,1.641 -1.949,3.589 -5.127,3.589 z"
     fill="#000000"
     id="path17" />
  <path
     d="m 66.184559,155.57405 c -4.614,0 -7.764,-3.355 -7.764,-8.218 0,-4.848 3.15,-8.218 7.764,-8.218 4.629,0 7.778,3.37 7.778,8.218 0,4.863 -3.149,8.218 -7.778,8.218 z m -5.01,-8.218 c 0,3.97 2.197,5.977 5.01,5.977 2.827,0 5.01,-2.007 5.01,-5.977 0,-3.955 -2.183,-5.962 -5.01,-5.962 -2.813,0 -5.01,2.007 -5.01,5.962 z"
     fill="#000000"
     id="path18" />
  <path
     d="m 50.342559,155.57405 c -2.388,0 -4.643,-0.645 -6.328,-2.49 l 1.699,-1.685 c 1.421,1.538 2.842,1.992 4.629,1.992 1.714,0 3.399,-0.542 3.399,-2.285 0,-1.831 -1.626,-2.3 -3.999,-2.959 -2.374,-0.659 -5.01,-1.567 -5.01,-4.599 0,-2.871 2.256,-4.41 5.581,-4.41 2.124,0 4.204,0.704 5.566,2.095 l -1.684,1.685 c -1.172,-1.172 -2.549,-1.553 -3.882,-1.553 -1.802,0 -3.032,0.63 -3.032,2.065 0,1.465 1.655,1.949 4.028,2.608 2.241,0.63 5.01,1.45 5.01,4.863 0,2.974 -2.461,4.673 -5.977,4.673 z"
     fill="#000000"
     id="path19" />
  <path
     d="m 35.655559,155.57405 c -4.79,0 -7.969,-2.871 -7.969,-8.218 0,-5.522 3.589,-8.218 7.676,-8.218 5.127,0 6.899,4.117 6.899,7.647 0,0.425 -0.015,0.85 -0.044,1.23 h -11.763 c 0.191,3.428 1.934,5.318 5.201,5.318 1.933,0 3.252,-0.542 4.409,-1.89 l 1.655,1.641 c -1.553,1.743 -3.296,2.49 -6.064,2.49 z m -5.127,-9.595 h 9.052 c -0.278,-3.105 -1.889,-4.585 -4.336,-4.585 -2.431,0 -4.292,1.509 -4.716,4.585 z"
     fill="#000000"
     id="path20" />
  <path
     d="m 10.577059,155.28005 v -20.64 h 7.9248 c 4.6729,0 7.2507,2.286 7.2507,6.094 0,2.578 -1.406,5.2 -5.0681,5.918 l 5.9181,8.628 h -3.2521 l -5.3906,-8.276 h -4.5996 v 8.276 z m 2.7832,-10.767 h 4.9512 c 3.2519,0 4.6582,-1.655 4.6582,-3.75 0,-2.402 -1.7725,-3.574 -4.7754,-3.574 h -4.834 z"
     fill="#000000"
     id="path21" />
  <path
     d="m 93.147559,125.28105 v -15.835 h 2.519 v 3.296 h 0.059 c 0.63,-1.655 1.963,-3.604 5.141991,-3.604 3.354,0 4.951,2.256 4.951,5.581 v 10.562 h -2.652 v -10.049 c 0,-2.314 -0.835,-3.75 -3.265991,-3.75 -2.49,0 -4.116,1.655 -4.116,4.614 v 9.185 z"
     fill="#000000"
     id="path22" />
  <path
     d="m 83.405559,125.57405 c -4.79,0 -7.969,-2.871 -7.969,-8.218 0,-5.522 3.589,-8.218 7.676,-8.218 5.127,0 6.899,4.117 6.899,7.647 0,0.425 -0.015,0.85 -0.044,1.23 h -11.763 c 0.191,3.428 1.934,5.318 5.201,5.318 1.933,0 3.252,-0.542 4.409,-1.89 l 1.655,1.641 c -1.553,1.743 -3.296,2.49 -6.064,2.49 z m -5.127,-9.595 h 9.052 c -0.278,-3.105 -1.889,-4.585 -4.336,-4.585 -2.431,0 -4.292,1.509 -4.716,4.585 z"
     fill="#000000"
     id="path23" />
  <path
     d="m 57.842559,131.52105 v -22.075 h 2.52 v 3.355 h 0.029 c 0.762,-1.861 2.314,-3.663 5.918,-3.663 4.204,0 6.958,3.37 6.958,8.218 0,4.863 -2.666,8.218 -6.87,8.218 -3.179,0 -5.039,-1.611 -5.845,-3.472 h -0.073 v 9.419 z m 2.637,-14.165 c 0,3.97 2.197,5.977 5.024,5.977 2.813,0 5.01,-2.007 5.01,-5.977 0,-3.955 -2.197,-5.962 -5.01,-5.962 -2.827,0 -5.024,2.007 -5.024,5.962 z"
     fill="#000000"
     id="path24" />
  <path
     d="m 44.530559,125.57405 c -5.933,0 -10.078,-4.131 -10.078,-10.62 0,-6.475 4.145,-10.62 10.078,-10.62 5.947,0 10.078,4.145 10.078,10.62 0,6.489 -4.131,10.62 -10.078,10.62 z m -7.237,-10.62 c 0,4.98 2.798,8.042 7.237,8.042 4.438,0 7.236,-3.062 7.236,-8.042 0,-4.966 -2.798,-8.027 -7.236,-8.027 -4.439,0 -7.237,3.061 -7.237,8.027 z"
     fill="#000000"
     id="path25" />
  <defs
     id="defs26">
    <linearGradient
       id="paint0_linear_204_2049"
       x1="113.792"
       y1="31.9594"
       x2="162"
       y2="80.499802"
       gradientUnits="userSpaceOnUse"
       gradientTransform="translate(-75.485441,-15.71895)">
      <stop
         stop-color="#3EDEBF"
         id="stop25" />
      <stop
         offset="1"
         stop-color="#18828D"
         id="stop26" />
    </linearGradient>
  </defs>
</svg>
