<svg width="3472" height="809" xmlns="http://www.w3.org/2000/svg" xmlns:xlink="http://www.w3.org/1999/xlink" xml:space="preserve" overflow="hidden"><defs><clipPath id="clip0"><rect x="437" y="1284" width="3472" height="809"/></clipPath><clipPath id="clip1"><path d="M1198.13 1368.68 1256.5 1469.77 1158.89 1526.13 1100.52 1425.03Z" fill-rule="evenodd" clip-rule="evenodd"/></clipPath><clipPath id="clip2"><path d="M1198.13 1368.68 1256.5 1469.77 1158.89 1526.13 1100.52 1425.03Z" fill-rule="evenodd" clip-rule="evenodd"/></clipPath><clipPath id="clip3"><path d="M1198.13 1368.68 1256.5 1469.77 1158.89 1526.13 1100.52 1425.03Z" fill-rule="evenodd" clip-rule="evenodd"/></clipPath><clipPath id="clip4"><path d="M3006.35 1672.59 3057.54 1567.68 3158.84 1617.11 3107.64 1722.02Z" fill-rule="evenodd" clip-rule="evenodd"/></clipPath><clipPath id="clip5"><path d="M3006.35 1672.59 3057.54 1567.68 3158.84 1617.11 3107.64 1722.02Z" fill-rule="evenodd" clip-rule="evenodd"/></clipPath><clipPath id="clip6"><path d="M3006.35 1672.59 3057.54 1567.68 3158.84 1617.11 3107.64 1722.02Z" fill-rule="evenodd" clip-rule="evenodd"/></clipPath></defs><g clip-path="url(#clip0)" transform="translate(-437 -1284)"><rect x="2857" y="1317" width="1045" height="776" fill="#F2F2F2"/><text font-family="Arial,Arial_MSFontService,sans-serif" font-weight="400" font-size="64" transform="matrix(1 0 0 1 3325.52 1405)">System Landscape</text><rect x="443" y="1284" width="1082" height="776" fill="#F2F2F2"/><text font-family="Arial,Arial_MSFontService,sans-serif" font-weight="400" font-size="64" transform="matrix(1 0 0 1 475.856 1371)">System Landscape</text><path d="M1617.5 1493 1686.75 1354.5 2629.25 1354.5 2698.5 1493 2629.25 1631.5 1686.75 1631.5Z" stroke="#760A85" stroke-width="9.16667" stroke-miterlimit="8" fill="#F2BBFA" fill-rule="evenodd"/><text font-family="Arial,Arial_MSFontService,sans-serif" font-weight="400" font-size="83" transform="matrix(1 0 0 1 1850.48 1523)">ORD Aggregator</text><path d="M3103.5 1658 3210.75 1443.5 3494.25 1443.5 3601.5 1658 3494.25 1872.5 3210.75 1872.5Z" stroke="#008FD3" stroke-width="9.16667" stroke-miterlimit="8" fill="#C3ECFF" fill-rule="evenodd"/><text fill="#004769" font-family="Arial,Arial_MSFontService,sans-serif" font-weight="400" font-size="73" transform="matrix(1 0 0 1 3270.28 1640)">ORD </text><text fill="#004769" font-family="Arial,Arial_MSFontService,sans-serif" font-weight="400" font-size="73" transform="matrix(1 0 0 1 3215.28 1728)">Provider</text><path d="M2698 1486.12 3062.67 1486.13 3062.67 1499.88 2698 1499.87ZM3055.8 1472.38 3097.05 1493 3055.8 1513.63Z"/><path d="M801.5 1647 908.75 1432.5 1192.25 1432.5 1299.5 1647 1192.25 1861.5 908.75 1861.5Z" stroke="#008FD3" stroke-width="9.16667" stroke-miterlimit="8" fill="#C3ECFF" fill-rule="evenodd"/><text fill="#004769" font-family="Arial,Arial_MSFontService,sans-serif" font-weight="400" font-size="73" transform="matrix(1 0 0 1 968.504 1630)">ORD </text><text fill="#004769" font-family="Arial,Arial_MSFontService,sans-serif" font-weight="400" font-size="73" transform="matrix(1 0 0 1 913.504 1718)">Provider</text><path d="M7.17779e-06-6.875 311.294-6.87467 311.294 6.87532-7.17779e-06 6.875ZM304.419-20.6247 345.668 0.000360892 304.418 20.6253Z" transform="matrix(-1 0 0 1 1616.67 1493)"/><path d="M2320.5 1943 2381.25 1821.5 2672.75 1821.5 2733.5 1943 2672.75 2064.5 2381.25 2064.5Z" stroke="#595959" stroke-width="6.875" stroke-miterlimit="8" fill="#D9D9D9" fill-rule="evenodd"/><text font-family="Arial,Arial_MSFontService,sans-serif" font-weight="400" font-size="46" transform="matrix(1 0 0 1 2469.1 1905)">Other</text><text font-family="Arial,Arial_MSFontService,sans-serif" font-weight="400" font-size="46" transform="matrix(1 0 0 1 2442.17 1960)">(central) </text><text font-family="Arial,Arial_MSFontService,sans-serif" font-weight="400" font-size="46" transform="matrix(1 0 0 1 2399.2 2015)">Repositories</text><path d="M2557.88 1635 2557.88 1786.41 2544.13 1786.41 2544.12 1635ZM2571.63 1779.53 2551 1820.78 2530.38 1779.53Z"/><rect x="2427" y="1675" width="250" height="58.9998" fill="#BFBFBF"/><text font-family="Arial,Arial_MSFontService,sans-serif" font-weight="400" font-size="37" transform="matrix(1 0 0 1 2470.62 1719)">integrates</text><rect x="1871" y="1595" width="492" height="157" fill="#760A85"/><g><g><g><path d="M83.0502 56.1047C83.2307 54.8164 83.324 53.5001 83.324 52.162 83.324 52.1255 83.324 52.0891 83.3238 52.0526L90.7857 52.0526C90.7856 52.0891 90.7856 52.1255 90.7856 52.162 90.7856 53.5001 90.8789 54.8164 91.0593 56.1047L83.0502 56.1047ZM59.2723 80.0262 59.2723 56.1047 83.0502 56.1047C81.321 68.4473 71.5916 78.2247 59.2723 80.0262ZM59.2723 88.0841 59.2723 80.0262C57.9491 80.2197 56.5963 80.3211 55.2202 80.324L55.2202 56.1047 55.2202 52.0526 59.2723 52.0526 83.3238 52.0526C83.2649 36.5494 70.679 24 55.162 24 39.6085 24 27 36.6085 27 52.162 27 67.7154 39.6085 80.324 55.162 80.324 55.1813 80.324 55.2008 80.324 55.2202 80.324L55.2202 87.7865C55.2008 87.7863 55.1813 87.7863 55.162 87.7863 39.6085 87.7863 27 100.395 27 115.948 27 131.502 39.6085 144.11 55.162 144.11 70.7154 144.11 83.324 131.502 83.324 115.948 83.324 115.912 83.324 115.875 83.3238 115.839L114.955 115.839 119.007 115.839 119.007 111.787 119.007 80.324C134.533 80.292 147.11 67.6958 147.11 52.162 147.11 36.6085 134.501 24 118.948 24 103.431 24 90.8447 36.5494 90.7857 52.0526L114.955 52.0526 119.007 52.0526 119.007 56.1047 119.007 80.324C118.987 80.324 118.967 80.324 118.948 80.324 117.592 80.324 116.259 80.2283 114.955 80.043L114.955 56.1047 91.0593 56.1047C92.7939 68.4864 102.58 78.2867 114.955 80.043L114.955 111.787 83.0187 111.787C81.2058 99.5476 71.5187 89.8749 59.2723 88.0841ZM83.0187 111.787C83.2146 113.11 83.3186 114.463 83.3238 115.839L59.2723 115.839 55.2202 115.839 55.2202 111.787 55.2202 87.7865C56.5963 87.7892 57.9491 87.8907 59.2723 88.0841L59.2723 111.787 83.0187 111.787Z" fill="#FFFFFF" fill-rule="evenodd" transform="matrix(1 0 0 1 1865 1588)"/><path d="M118.947 135.979C130.025 135.979 139.005 126.998 139.005 115.921 139.005 104.843 130.025 95.8629 118.947 95.8629 107.869 95.8629 98.8891 104.843 98.8891 115.921 98.8891 126.998 107.869 135.979 118.947 135.979ZM118.947 144.083C134.5 144.083 147.109 131.474 147.109 115.921 147.109 100.367 134.5 87.7587 118.947 87.7587 103.394 87.7587 90.785 100.367 90.785 115.921 90.785 131.474 103.394 144.083 118.947 144.083Z" fill="#FFFFFF" fill-rule="evenodd" transform="matrix(1 0 0 1 1865 1588)"/><path d="M146.087 130.846 158.991 143.986 147.95 154.951 135.047 141.81 146.087 130.846Z" fill="#FFFFFF" fill-rule="evenodd" transform="matrix(1 0 0 1 1865 1588)"/><path d="M132.797 111.865C131.605 112.799 130.099 113.349 128.466 113.329 124.662 113.283 121.614 110.161 121.66 106.357 121.679 104.782 122.225 103.337 123.128 102.187 121.87 101.811 120.54 101.601 119.162 101.585 111.205 101.489 104.676 107.862 104.58 115.819 104.484 123.777 110.857 130.305 118.814 130.401 126.772 130.497 133.3 124.124 133.396 116.167 133.414 114.671 133.204 113.226 132.797 111.865Z" fill="#FFFFFF" fill-rule="evenodd" transform="matrix(1 0 0 1 1865 1588)"/></g></g></g><text fill="#FFFFFF" font-family="Arial,Arial_MSFontService,sans-serif" font-weight="400" font-size="46" transform="matrix(1 0 0 1 2139.55 1666)">ORD </text><text fill="#FFFFFF" font-family="Arial,Arial_MSFontService,sans-serif" font-weight="400" font-size="46" transform="matrix(1 0 0 1 2047.01 1721)">Discovery API</text><path d="M1196.36 1374.98 1360.87 1659.91 1269.66 1712.57 1105.15 1427.64Z" fill="#008FD3" fill-rule="evenodd"/><g clip-path="url(#clip1)"><g clip-path="url(#clip2)"><g clip-path="url(#clip3)"><path d="M1193.4 1435.75C1194.2 1435.42 1195 1435.04 1195.78 1434.59 1195.8 1434.58 1195.82 1434.56 1195.84 1434.55L1198.34 1438.89C1198.32 1438.9 1198.3 1438.91 1198.28 1438.92 1197.5 1439.37 1196.77 1439.87 1196.08 1440.4L1193.4 1435.75ZM1171.52 1429.96 1185.42 1421.94 1193.4 1435.75C1185.64 1438.89 1176.7 1436.51 1171.52 1429.96ZM1166.84 1432.66 1171.52 1429.96C1170.96 1429.26 1170.45 1428.5 1169.99 1427.71L1184.06 1419.58 1186.41 1418.22 1187.77 1420.58 1195.84 1434.55C1204.83 1429.32 1207.9 1417.79 1202.69 1408.78 1197.48 1399.74 1185.92 1396.64 1176.88 1401.86 1167.85 1407.08 1164.75 1418.63 1169.97 1427.67 1169.97 1427.68 1169.98 1427.69 1169.99 1427.71L1165.65 1430.21C1165.65 1430.2 1165.64 1430.19 1165.63 1430.17 1160.42 1421.14 1148.86 1418.04 1139.82 1423.26 1130.79 1428.48 1127.69 1440.03 1132.91 1449.07 1138.12 1458.11 1149.68 1461.2 1158.72 1455.98 1158.74 1455.97 1158.76 1455.96 1158.78 1455.95L1169.39 1474.33 1170.75 1476.68 1173.1 1475.32 1191.39 1464.77C1196.61 1473.78 1208.15 1476.86 1217.18 1471.65 1226.21 1466.43 1229.31 1454.88 1224.09 1445.84 1218.89 1436.82 1207.37 1433.72 1198.34 1438.89L1206.45 1452.93 1207.81 1455.28 1205.46 1456.64 1191.39 1464.77C1191.38 1464.76 1191.37 1464.74 1191.37 1464.73 1190.91 1463.95 1190.52 1463.14 1190.19 1462.32L1204.1 1454.29 1196.08 1440.4C1189.47 1445.57 1187.06 1454.54 1190.19 1462.32L1171.75 1472.97 1161.03 1454.41C1167.54 1449.25 1169.91 1440.38 1166.84 1432.66ZM1161.03 1454.41C1160.33 1454.97 1159.58 1455.48 1158.78 1455.95L1150.71 1441.97 1149.35 1439.62 1151.71 1438.26 1165.65 1430.21C1166.11 1431.01 1166.51 1431.83 1166.84 1432.66L1153.07 1440.61 1161.03 1454.41Z" fill="#FFFFFF" fill-rule="evenodd"/><path d="M1159.03 1483.4C1162.74 1489.84 1170.97 1492.04 1177.41 1488.33 1183.85 1484.61 1186.05 1476.38 1182.34 1469.94 1178.62 1463.51 1170.39 1461.3 1163.95 1465.02 1157.52 1468.74 1155.31 1476.97 1159.03 1483.4ZM1154.32 1486.12C1159.54 1495.16 1171.09 1498.25 1180.13 1493.04 1189.17 1487.82 1192.26 1476.26 1187.05 1467.23 1181.83 1458.19 1170.27 1455.09 1161.24 1460.31 1152.2 1465.53 1149.1 1477.08 1154.32 1486.12Z" fill="#FFFFFF" fill-rule="evenodd"/><path d="M1171.12 1497.45 1167.81 1509.35 1157.73 1506.62 1161.04 1494.71 1171.12 1497.45Z" fill="#FFFFFF" fill-rule="evenodd"/><path d="M1177.69 1483.36C1176.74 1482.98 1175.92 1482.29 1175.38 1481.33 1174.13 1479.11 1174.92 1476.29 1177.15 1475.04 1178.07 1474.52 1179.09 1474.36 1180.06 1474.5 1179.86 1473.64 1179.54 1472.8 1179.08 1471.99 1176.47 1467.33 1170.58 1465.68 1165.92 1468.29 1161.27 1470.91 1159.61 1476.8 1162.22 1481.45 1164.84 1486.11 1170.73 1487.76 1175.39 1485.15 1176.26 1484.66 1177.03 1484.05 1177.69 1483.36Z" fill="#FFFFFF" fill-rule="evenodd"/></g></g></g><text fill="#FFFFFF" font-family="Arial,Arial_MSFontService,sans-serif" font-weight="400" font-size="32" transform="matrix(0.5 0.866025 -0.866025 0.5 1243.91 1548)">ORD </text><text fill="#FFFFFF" font-family="Arial,Arial_MSFontService,sans-serif" font-weight="400" font-size="32" transform="matrix(0.5 0.866025 -0.866025 0.5 1182.92 1520)">Provider API</text><path d="M3012.56 1670.53 3156.86 1374.85 3251.51 1421.04 3107.21 1716.72Z" fill="#008FD3" fill-rule="evenodd"/><g clip-path="url(#clip4)"><g clip-path="url(#clip5)"><g clip-path="url(#clip6)"><path d="M3064.61 1639.02C3063.89 1638.53 3063.12 1638.09 3062.31 1637.7 3062.29 1637.69 3062.27 1637.68 3062.25 1637.66L3064.44 1633.17C3064.47 1633.18 3064.49 1633.19 3064.51 1633.2 3065.32 1633.59 3066.14 1633.92 3066.97 1634.19L3064.61 1639.02ZM3072.04 1660.4 3057.61 1653.36 3064.61 1639.02C3071.54 1643.7 3074.58 1652.44 3072.04 1660.4ZM3076.9 1662.77 3072.04 1660.4C3071.76 1661.25 3071.43 1662.1 3071.02 1662.93L3056.42 1655.8 3053.98 1654.61 3055.17 1652.17 3062.25 1637.66C3052.88 1633.14 3041.61 1637.03 3037.05 1646.39 3032.47 1655.77 3036.36 1667.08 3045.74 1671.66 3055.12 1676.23 3066.43 1672.34 3071.01 1662.96 3071.01 1662.95 3071.02 1662.94 3071.02 1662.93L3075.52 1665.12C3075.52 1665.14 3075.51 1665.15 3075.51 1665.16 3070.93 1674.54 3074.82 1685.85 3084.2 1690.43 3093.58 1695 3104.89 1691.11 3109.47 1681.73 3114.04 1672.35 3110.15 1661.04 3100.77 1656.47 3100.75 1656.45 3100.73 1656.44 3100.71 1656.43L3110.01 1637.36 3111.21 1634.92 3108.76 1633.73 3089.79 1624.47C3094.34 1615.1 3090.45 1603.81 3081.08 1599.24 3071.7 1594.66 3060.39 1598.55 3055.82 1607.93 3051.25 1617.29 3055.11 1628.57 3064.44 1633.17L3071.55 1618.59 3072.75 1616.15 3075.19 1617.34 3089.79 1624.47C3089.79 1624.48 3089.78 1624.49 3089.78 1624.5 3089.38 1625.32 3088.93 1626.1 3088.43 1626.83L3074 1619.79 3066.97 1634.19C3074.94 1636.79 3083.73 1633.77 3088.43 1626.83L3107.57 1636.17 3098.17 1655.43C3090.26 1652.92 3081.58 1655.91 3076.9 1662.77ZM3098.17 1655.43C3099.03 1655.7 3099.88 1656.03 3100.71 1656.43L3093.63 1670.94 3092.44 1673.38 3089.99 1672.19 3075.52 1665.12C3075.93 1664.3 3076.39 1663.51 3076.9 1662.77L3091.19 1669.74 3098.17 1655.43Z" fill="#FFFFFF" fill-rule="evenodd"/><path d="M3123.33 1640.88C3126.59 1634.2 3123.82 1626.14 3117.14 1622.89 3110.46 1619.63 3102.4 1622.4 3099.14 1629.08 3095.89 1635.76 3098.66 1643.81 3105.34 1647.07 3112.02 1650.33 3120.07 1647.56 3123.33 1640.88ZM3128.22 1643.27C3132.79 1633.89 3128.9 1622.58 3119.52 1618 3110.15 1613.42 3098.83 1617.31 3094.26 1626.69 3089.68 1636.07 3093.57 1647.38 3102.95 1651.96 3112.33 1656.54 3123.64 1652.64 3128.22 1643.27Z" fill="#FFFFFF" fill-rule="evenodd"/><path d="M3128.22 1623.01 3139.94 1619.09 3143.31 1628.98 3131.59 1632.89 3128.22 1623.01Z" fill="#FFFFFF" fill-rule="evenodd"/><path d="M3112.87 1625.43C3113.08 1626.43 3112.97 1627.5 3112.48 1628.48 3111.33 1630.76 3108.55 1631.68 3106.27 1630.53 3105.33 1630.05 3104.62 1629.3 3104.19 1628.42 3103.59 1629.06 3103.07 1629.81 3102.66 1630.63 3100.26 1635.4 3102.18 1641.21 3106.95 1643.61 3111.72 1646.01 3117.53 1644.09 3119.93 1639.32 3122.33 1634.55 3120.41 1628.74 3115.64 1626.34 3114.74 1625.89 3113.81 1625.59 3112.87 1625.43Z" fill="#FFFFFF" fill-rule="evenodd"/></g></g></g><text fill="#FFFFFF" font-family="Arial,Arial_MSFontService,sans-serif" font-weight="400" font-size="32" transform="matrix(0.438572 -0.898696 0.898696 0.438572 3129.28 1535)">ORD </text><text fill="#FFFFFF" font-family="Arial,Arial_MSFontService,sans-serif" font-weight="400" font-size="32" transform="matrix(0.438572 -0.898696 0.898696 0.438572 3140.46 1601)">Provider API</text></g></svg>