<svg width="3472" height="810" xmlns="http://www.w3.org/2000/svg" xmlns:xlink="http://www.w3.org/1999/xlink" xml:space="preserve" overflow="hidden"><defs><clipPath id="clip0"><rect x="410" y="1283" width="3472" height="810"/></clipPath><clipPath id="clip1"><path d="M1171.73 1367.94 1230.1 1469.04 1132.49 1525.4 1074.12 1424.3Z" fill-rule="evenodd" clip-rule="evenodd"/></clipPath><clipPath id="clip2"><path d="M1171.73 1367.94 1230.1 1469.04 1132.49 1525.4 1074.12 1424.3Z" fill-rule="evenodd" clip-rule="evenodd"/></clipPath><clipPath id="clip3"><path d="M1171.73 1367.94 1230.1 1469.04 1132.49 1525.4 1074.12 1424.3Z" fill-rule="evenodd" clip-rule="evenodd"/></clipPath><clipPath id="clip4"><path d="M2979.95 1671.85 3031.14 1566.94 3132.44 1616.38 3081.24 1721.29Z" fill-rule="evenodd" clip-rule="evenodd"/></clipPath><clipPath id="clip5"><path d="M2979.95 1671.85 3031.14 1566.94 3132.44 1616.38 3081.24 1721.29Z" fill-rule="evenodd" clip-rule="evenodd"/></clipPath><clipPath id="clip6"><path d="M2979.95 1671.85 3031.14 1566.94 3132.44 1616.38 3081.24 1721.29Z" fill-rule="evenodd" clip-rule="evenodd"/></clipPath></defs><g clip-path="url(#clip0)" transform="translate(-410 -1283)"><rect x="2831" y="1316" width="1045" height="777" fill="#F2F2F2"/><text font-family="Arial,Arial_MSFontService,sans-serif" font-weight="400" font-size="64" transform="matrix(1 0 0 1 3299.12 1404)">System Landscape</text><rect x="417" y="1283" width="1082" height="776" fill="#F2F2F2"/><text font-family="Arial,Arial_MSFontService,sans-serif" font-weight="400" font-size="64" transform="matrix(1 0 0 1 449.456 1371)">System Landscape</text><path d="M1590.5 1492 1659.75 1353.5 2603.25 1353.5 2672.5 1492 2603.25 1630.5 1659.75 1630.5Z" stroke="#E35500" stroke-width="9.16667" stroke-miterlimit="8" fill="#FFDCC6" fill-rule="evenodd"/><text font-family="Arial,Arial_MSFontService,sans-serif" font-weight="400" font-size="83" transform="matrix(1 0 0 1 1824.08 1522)">ORD Aggregator</text><path d="M3076.5 1657 3183.75 1442.5 3467.25 1442.5 3574.5 1657 3467.25 1871.5 3183.75 1871.5Z" stroke="#008FD3" stroke-width="9.16667" stroke-miterlimit="8" fill="#C3ECFF" fill-rule="evenodd"/><text fill="#004769" font-family="Arial,Arial_MSFontService,sans-serif" font-weight="400" font-size="73" transform="matrix(1 0 0 1 3243.88 1639)">ORD </text><text fill="#004769" font-family="Arial,Arial_MSFontService,sans-serif" font-weight="400" font-size="73" transform="matrix(1 0 0 1 3188.88 1727)">Provider</text><path d="M2672 1485.12 3036.67 1485.13 3036.67 1498.88 2672 1498.87ZM3029.8 1471.38 3071.05 1492 3029.8 1512.63Z"/><path d="M774.5 1646 881.75 1431.5 1165.25 1431.5 1272.5 1646 1165.25 1860.5 881.75 1860.5Z" stroke="#008FD3" stroke-width="9.16667" stroke-miterlimit="8" fill="#C3ECFF" fill-rule="evenodd"/><text fill="#004769" font-family="Arial,Arial_MSFontService,sans-serif" font-weight="400" font-size="73" transform="matrix(1 0 0 1 942.104 1629)">ORD </text><text fill="#004769" font-family="Arial,Arial_MSFontService,sans-serif" font-weight="400" font-size="73" transform="matrix(1 0 0 1 887.104 1717)">Provider</text><path d="M7.17779e-06-6.875 311.294-6.87467 311.294 6.87532-7.17779e-06 6.875ZM304.419-20.6247 345.668 0.000360892 304.418 20.6253Z" transform="matrix(-1 0 0 1 1590.67 1492)"/><path d="M2293.5 1942 2354.25 1820.5 2645.75 1820.5 2706.5 1942 2645.75 2063.5 2354.25 2063.5Z" stroke="#760A85" stroke-width="6.875" stroke-miterlimit="8" fill="#F2BBFA" fill-rule="evenodd"/><text font-family="Arial,Arial_MSFontService,sans-serif" font-weight="400" font-size="46" transform="matrix(1 0 0 1 2442.7 1904)">Other</text><text font-family="Arial,Arial_MSFontService,sans-serif" font-weight="400" font-size="46" transform="matrix(1 0 0 1 2415.77 1959)">(central) </text><text font-family="Arial,Arial_MSFontService,sans-serif" font-weight="400" font-size="46" transform="matrix(1 0 0 1 2372.8 2014)">Repositories</text><path d="M2531.87 1634 2531.88 1785.41 2518.12 1785.41 2518.12 1634ZM2545.62 1778.53 2525 1819.78 2504.38 1778.53Z"/><rect x="2400" y="1675" width="250" height="57.9998" fill="#BFBFBF"/><text font-family="Arial,Arial_MSFontService,sans-serif" font-weight="400" font-size="37" transform="matrix(1 0 0 1 2444.22 1718)">integrates</text><rect x="1845" y="1594" width="492" height="158" fill="#E35500"/><g><g><g><path d="M83.5276 56.4272C83.7091 55.1315 83.803 53.8077 83.803 52.4618 83.803 52.4252 83.803 52.3885 83.8028 52.3518L91.3076 52.3518C91.3074 52.3885 91.3074 52.4252 91.3074 52.4618 91.3074 53.8077 91.4013 55.1315 91.5828 56.4272L83.5276 56.4272ZM59.613 80.4863 59.613 56.4272 83.5276 56.4272C81.7885 68.8408 72.0031 78.6744 59.613 80.4863ZM59.613 88.5904 59.613 80.4863C58.2822 80.6809 56.9216 80.7829 55.5376 80.7857L55.5376 56.4272 55.5376 52.3518 59.613 52.3518 83.8028 52.3518C83.7435 36.7595 71.0853 24.1379 55.4791 24.1379 39.8362 24.1379 27.1552 36.8189 27.1552 52.4618 27.1552 68.1047 39.8362 80.7857 55.4791 80.7857 55.4985 80.7857 55.5181 80.7857 55.5376 80.7857L55.5376 88.2911C55.5181 88.291 55.4985 88.291 55.4791 88.291 39.8362 88.291 27.1552 100.972 27.1552 116.615 27.1552 132.258 39.8362 144.939 55.4791 144.939 71.1219 144.939 83.803 132.258 83.803 116.615 83.803 116.578 83.803 116.542 83.8028 116.505L115.615 116.505 119.691 116.505 119.691 112.429 119.691 80.7857C135.306 80.7536 147.955 68.0849 147.955 52.4618 147.955 36.8189 135.274 24.1379 119.631 24.1379 104.025 24.1379 91.3669 36.7595 91.3076 52.3518L115.615 52.3518 119.691 52.3518 119.691 56.4272 119.691 80.7857C119.671 80.7857 119.651 80.7857 119.631 80.7857 118.268 80.7857 116.927 80.6895 115.615 80.5032L115.615 56.4272 91.5828 56.4272C93.3273 68.8801 103.169 78.7367 115.615 80.5032L115.615 112.429 83.496 112.429C81.6726 100.12 71.9298 90.3916 59.613 88.5904ZM83.496 112.429C83.693 113.76 83.7975 115.121 83.8028 116.505L59.613 116.505 55.5376 116.505 55.5376 112.429 55.5376 88.2911C56.9216 88.2938 58.2822 88.396 59.613 88.5904L59.613 112.429 83.496 112.429Z" fill="#FFFFFF" fill-rule="evenodd" transform="matrix(1 0 0 1.0002 1838 1587)"/><path d="M119.631 136.76C130.772 136.76 139.804 127.728 139.804 116.587 139.804 105.446 130.772 96.414 119.631 96.414 108.489 96.414 99.4576 105.446 99.4576 116.587 99.4576 127.728 108.489 136.76 119.631 136.76ZM119.631 144.911C135.274 144.911 147.955 132.23 147.955 116.587 147.955 100.944 135.274 88.2632 119.631 88.2632 103.988 88.2632 91.3068 100.944 91.3068 116.587 91.3068 132.23 103.988 144.911 119.631 144.911Z" fill="#FFFFFF" fill-rule="evenodd" transform="matrix(1 0 0 1.0002 1838 1587)"/><path d="M146.927 131.598 159.905 144.814 148.8 155.842 135.823 142.625 146.927 131.598Z" fill="#FFFFFF" fill-rule="evenodd" transform="matrix(1 0 0 1.0002 1838 1587)"/><path d="M133.561 112.508C132.362 113.448 130.847 114 129.205 113.98 125.378 113.934 122.313 110.795 122.36 106.968 122.379 105.384 122.928 103.931 123.836 102.775 122.571 102.396 121.233 102.185 119.847 102.169 111.844 102.072 105.278 108.482 105.181 116.485 105.084 124.488 111.494 131.054 119.497 131.151 127.5 131.248 134.067 124.838 134.163 116.835 134.181 115.331 133.97 113.877 133.561 112.508Z" fill="#FFFFFF" fill-rule="evenodd" transform="matrix(1 0 0 1.0002 1838 1587)"/></g></g></g><text fill="#FFFFFF" font-family="Arial,Arial_MSFontService,sans-serif" font-weight="400" font-size="46" transform="matrix(1 0 0 1 2113.15 1665)">ORD </text><text fill="#FFFFFF" font-family="Arial,Arial_MSFontService,sans-serif" font-weight="400" font-size="46" transform="matrix(1 0 0 1 2020.61 1720)">Discovery API</text><path d="M1169.96 1374.25 1334.47 1659.18 1243.26 1711.84 1078.75 1426.91Z" fill="#008FD3" fill-rule="evenodd"/><g clip-path="url(#clip1)"><g clip-path="url(#clip2)"><g clip-path="url(#clip3)"><path d="M1167 1435.02C1167.8 1434.69 1168.6 1434.3 1169.38 1433.85 1169.4 1433.84 1169.42 1433.83 1169.44 1433.82L1171.94 1438.15C1171.92 1438.16 1171.9 1438.18 1171.88 1438.19 1171.1 1438.64 1170.37 1439.13 1169.68 1439.67L1167 1435.02ZM1145.12 1429.23 1159.02 1421.2 1167 1435.02C1159.24 1438.15 1150.3 1435.78 1145.12 1429.23ZM1140.44 1431.93 1145.12 1429.23C1144.56 1428.52 1144.05 1427.77 1143.59 1426.97L1157.66 1418.85 1160.01 1417.49 1161.37 1419.84 1169.44 1433.82C1178.43 1428.58 1181.5 1417.06 1176.29 1408.04 1171.08 1399.01 1159.52 1395.91 1150.48 1401.13 1141.45 1406.35 1138.35 1417.9 1143.57 1426.94 1143.58 1426.95 1143.58 1426.96 1143.59 1426.97L1139.25 1429.48C1139.25 1429.46 1139.24 1429.45 1139.23 1429.44 1134.02 1420.4 1122.46 1417.31 1113.42 1422.53 1104.39 1427.74 1101.29 1439.3 1106.51 1448.34 1111.72 1457.37 1123.28 1460.47 1132.32 1455.25 1132.34 1455.24 1132.36 1455.23 1132.38 1455.21L1142.99 1473.59 1144.35 1475.95 1146.7 1474.59 1164.99 1464.03C1170.21 1473.04 1181.75 1476.13 1190.78 1470.91 1199.81 1465.7 1202.91 1454.14 1197.69 1445.11 1192.49 1436.09 1180.97 1432.99 1171.94 1438.15L1180.05 1452.2 1181.41 1454.55 1179.06 1455.91 1164.99 1464.03C1164.98 1464.02 1164.97 1464.01 1164.97 1464 1164.51 1463.21 1164.12 1462.4 1163.79 1461.58L1177.7 1453.55 1169.68 1439.67C1163.07 1444.83 1160.66 1453.81 1163.79 1461.58L1145.35 1472.23 1134.63 1453.68C1141.14 1448.52 1143.51 1439.65 1140.44 1431.93ZM1134.63 1453.68C1133.93 1454.24 1133.18 1454.75 1132.38 1455.21L1124.31 1441.24 1122.95 1438.89 1125.31 1437.53 1139.25 1429.48C1139.71 1430.28 1140.11 1431.1 1140.44 1431.93L1126.67 1439.88 1134.63 1453.68Z" fill="#FFFFFF" fill-rule="evenodd"/><path d="M1132.63 1482.67C1136.34 1489.1 1144.58 1491.31 1151.01 1487.59 1157.45 1483.88 1159.65 1475.65 1155.94 1469.21 1152.22 1462.78 1143.99 1460.57 1137.55 1464.29 1131.12 1468 1128.91 1476.23 1132.63 1482.67ZM1127.92 1485.39C1133.14 1494.42 1144.69 1497.52 1153.73 1492.3 1162.77 1487.09 1165.86 1475.53 1160.65 1466.49 1155.43 1457.46 1143.87 1454.36 1134.84 1459.58 1125.8 1464.79 1122.7 1476.35 1127.92 1485.39Z" fill="#FFFFFF" fill-rule="evenodd"/><path d="M1144.72 1496.72 1141.41 1508.62 1131.33 1505.88 1134.64 1493.98 1144.72 1496.72Z" fill="#FFFFFF" fill-rule="evenodd"/><path d="M1151.29 1482.63C1150.34 1482.25 1149.52 1481.56 1148.98 1480.6 1147.73 1478.38 1148.52 1475.56 1150.75 1474.31 1151.67 1473.79 1152.69 1473.62 1153.66 1473.76 1153.46 1472.91 1153.14 1472.06 1152.68 1471.26 1150.07 1466.6 1144.18 1464.94 1139.52 1467.56 1134.87 1470.17 1133.21 1476.06 1135.82 1480.72 1138.44 1485.38 1144.33 1487.03 1148.99 1484.42 1149.86 1483.93 1150.63 1483.32 1151.29 1482.63Z" fill="#FFFFFF" fill-rule="evenodd"/></g></g></g><text fill="#FFFFFF" font-family="Arial,Arial_MSFontService,sans-serif" font-weight="400" font-size="32" transform="matrix(0.5 0.866025 -0.866025 0.5 1217.51 1547)">ORD </text><text fill="#FFFFFF" font-family="Arial,Arial_MSFontService,sans-serif" font-weight="400" font-size="32" transform="matrix(0.5 0.866025 -0.866025 0.5 1156.52 1519)">Provider API</text><path d="M2986.16 1669.8 3130.46 1374.12 3225.11 1420.31 3080.81 1715.99Z" fill="#008FD3" fill-rule="evenodd"/><g clip-path="url(#clip4)"><g clip-path="url(#clip5)"><g clip-path="url(#clip6)"><path d="M3038.21 1638.29C3037.49 1637.8 3036.72 1637.36 3035.91 1636.96 3035.89 1636.95 3035.87 1636.94 3035.85 1636.93L3038.04 1632.43C3038.07 1632.44 3038.09 1632.45 3038.11 1632.46 3038.92 1632.86 3039.74 1633.19 3040.57 1633.46L3038.21 1638.29ZM3045.64 1659.66 3031.21 1652.63 3038.21 1638.29C3045.14 1642.96 3048.18 1651.71 3045.64 1659.66ZM3050.5 1662.04 3045.64 1659.66C3045.36 1660.52 3045.03 1661.36 3044.62 1662.19L3030.02 1655.07 3027.58 1653.88 3028.77 1651.43 3035.85 1636.93C3026.48 1632.41 3015.21 1636.3 3010.65 1645.66 3006.07 1655.04 3009.96 1666.35 3019.34 1670.92 3028.72 1675.5 3040.03 1671.61 3044.61 1662.23 3044.61 1662.22 3044.62 1662.21 3044.62 1662.19L3049.12 1664.39C3049.12 1664.4 3049.11 1664.41 3049.11 1664.43 3044.53 1673.8 3048.42 1685.12 3057.8 1689.69 3067.18 1694.27 3078.49 1690.38 3083.07 1681 3087.64 1671.62 3083.75 1660.31 3074.37 1655.73 3074.35 1655.72 3074.33 1655.71 3074.31 1655.7L3083.61 1636.63 3084.81 1634.19 3082.36 1632.99 3063.39 1623.74C3067.94 1614.36 3064.05 1603.08 3054.68 1598.5 3045.3 1593.93 3033.99 1597.82 3029.42 1607.2 3024.85 1616.55 3028.71 1627.84 3038.04 1632.43L3045.15 1617.86 3046.35 1615.42 3048.79 1616.61 3063.39 1623.74C3063.39 1623.75 3063.38 1623.76 3063.38 1623.77 3062.98 1624.59 3062.53 1625.36 3062.03 1626.1L3047.6 1619.05 3040.57 1633.46C3048.54 1636.06 3057.33 1633.04 3062.03 1626.1L3081.17 1635.44 3071.77 1654.69C3063.86 1652.18 3055.18 1655.18 3050.5 1662.04ZM3071.77 1654.69C3072.63 1654.96 3073.48 1655.3 3074.31 1655.7L3067.23 1670.2 3066.04 1672.65 3063.59 1671.45 3049.12 1664.39C3049.53 1663.56 3049.99 1662.78 3050.5 1662.04L3064.79 1669.01 3071.77 1654.69Z" fill="#FFFFFF" fill-rule="evenodd"/><path d="M3096.93 1640.15C3100.19 1633.47 3097.42 1625.41 3090.74 1622.15 3084.06 1618.89 3076 1621.66 3072.74 1628.34 3069.49 1635.02 3072.26 1643.08 3078.94 1646.34 3085.62 1649.6 3093.67 1646.83 3096.93 1640.15ZM3101.82 1642.53C3106.39 1633.15 3102.5 1621.84 3093.12 1617.27 3083.75 1612.69 3072.43 1616.58 3067.86 1625.96 3063.28 1635.34 3067.17 1646.65 3076.55 1651.23 3085.93 1655.8 3097.24 1651.91 3101.82 1642.53Z" fill="#FFFFFF" fill-rule="evenodd"/><path d="M3101.82 1622.27 3113.54 1618.36 3116.91 1628.24 3105.19 1632.16 3101.82 1622.27Z" fill="#FFFFFF" fill-rule="evenodd"/><path d="M3086.47 1624.7C3086.68 1625.69 3086.57 1626.76 3086.08 1627.74 3084.93 1630.02 3082.15 1630.94 3079.87 1629.8 3078.93 1629.32 3078.22 1628.57 3077.79 1627.68 3077.19 1628.33 3076.67 1629.07 3076.26 1629.9 3073.86 1634.67 3075.78 1640.48 3080.55 1642.88 3085.32 1645.28 3091.13 1643.36 3093.53 1638.59 3095.93 1633.82 3094.01 1628.01 3089.24 1625.61 3088.34 1625.15 3087.41 1624.86 3086.47 1624.7Z" fill="#FFFFFF" fill-rule="evenodd"/></g></g></g><text fill="#FFFFFF" font-family="Arial,Arial_MSFontService,sans-serif" font-weight="400" font-size="32" transform="matrix(0.438572 -0.898696 0.898696 0.438572 3102.88 1534)">ORD </text><text fill="#FFFFFF" font-family="Arial,Arial_MSFontService,sans-serif" font-weight="400" font-size="32" transform="matrix(0.438572 -0.898696 0.898696 0.438572 3114.06 1600)">Provider API</text></g></svg>