<?xml version="1.0" encoding="UTF-8" standalone="no"?>
<svg
   width="87.994003"
   height="87.301003"
   viewBox="0 0 87.994003 87.301003"
   fill="none"
   version="1.1"
   id="svg4"
   sodipodi:docname="ORD_Icon_White_Logo.svg"
   inkscape:version="1.4 (86a8ad7, 2024-10-11)"
   xmlns:inkscape="http://www.inkscape.org/namespaces/inkscape"
   xmlns:sodipodi="http://sodipodi.sourceforge.net/DTD/sodipodi-0.dtd"
   xmlns="http://www.w3.org/2000/svg"
   xmlns:svg="http://www.w3.org/2000/svg">
  <defs
     id="defs4" />
  <sodipodi:namedview
     id="namedview4"
     pagecolor="#ffffff"
     bordercolor="#000000"
     borderopacity="0.25"
     inkscape:showpageshadow="2"
     inkscape:pageopacity="0.0"
     inkscape:pagecheckerboard="0"
     inkscape:deskcolor="#d1d1d1"
     inkscape:zoom="10.419643"
     inkscape:cx="40.020565"
     inkscape:cy="39.972579"
     inkscape:window-width="3840"
     inkscape:window-height="2071"
     inkscape:window-x="2391"
     inkscape:window-y="-9"
     inkscape:window-maximized="1"
     inkscape:current-layer="svg4" />
  <path
     fill-rule="evenodd"
     clip-rule="evenodd"
     d="m 37.3669,21.4032 c 0.1203,-0.8589 0.1825,-1.7364 0.1825,-2.6285 0,-0.0243 0,-0.0486 -10e-5,-0.0729 h 4.9746 c -10e-5,0.0243 -10e-5,0.0486 -10e-5,0.0729 0,0.8921 0.0622,1.7696 0.1825,2.6285 z M 21.5149,37.3509 V 21.4032 h 15.852 c -1.1528,8.2284 -7.6391,14.7467 -15.852,15.9477 z m 0,5.3719 v -5.3719 c -0.8821,0.129 -1.784,0.1966 -2.7014,0.1985 V 21.4032 18.7018 h 2.7014 16.0344 C 37.51,8.3663 29.1194,0 18.7747,0 8.4057,0 0,8.4057 0,18.7747 c 0,10.369 8.4057,18.7747 18.7747,18.7747 0.0129,0 0.0259,0 0.0388,0 v 4.975 c -0.0129,-1e-4 -0.0259,-1e-4 -0.0388,-1e-4 C 8.4057,42.5243 0,50.93 0,61.299 c 0,10.369 8.4057,18.7747 18.7747,18.7747 10.369,0 18.7747,-8.4057 18.7747,-18.7747 0,-0.0243 0,-0.0486 -10e-5,-0.0729 h 21.0872 2.7014 V 58.5247 37.5494 C 71.6887,37.5281 80.0732,29.1306 80.0732,18.7747 80.0732,8.4057 71.6675,0 61.2985,0 50.9538,0 42.5632,8.3663 42.5239,18.7018 h 16.1126 2.7014 v 2.7014 16.1462 c -0.0132,0 -0.0263,0 -0.0394,0 -0.9037,0 -1.7925,-0.0638 -2.662,-0.1873 V 21.4032 H 42.7063 c 1.1564,8.2545 7.6803,14.788 15.9302,15.9589 V 58.5247 H 37.3459 C 36.1373,50.3652 29.6792,43.9167 21.5149,42.7228 Z m 15.831,15.8019 c 0.1306,0.882 0.1999,1.784 0.2034,2.7014 H 21.5149 18.8135 V 58.5247 42.5244 c 0.9174,0.0018 1.8193,0.0695 2.7014,0.1984 v 15.8019 z"
     fill="#ffffff"
     id="path1" />
  <path
     fill-rule="evenodd"
     clip-rule="evenodd"
     d="m 61.2981,74.6525 c 7.3852,0 13.372,-5.9868 13.372,-13.3719 0,-7.3851 -5.9868,-13.3719 -13.372,-13.3719 -7.3851,0 -13.3719,5.9868 -13.3719,13.3719 0,7.3851 5.9868,13.3719 13.3719,13.3719 z m 0,5.4028 c 10.369,0 18.7748,-8.4057 18.7748,-18.7747 0,-10.369 -8.4058,-18.7747 -18.7748,-18.7747 -10.3689,0 -18.7747,8.4057 -18.7747,18.7747 0,10.369 8.4058,18.7747 18.7747,18.7747 z"
     fill="#ffffff"
     id="path2" />
  <path
     fill-rule="evenodd"
     clip-rule="evenodd"
     d="m 79.3917,71.2305 8.6023,8.7606 -7.3606,7.3099 -8.6022,-8.7607 z"
     fill="#ffffff"
     id="path3" />
  <path
     fill-rule="evenodd"
     clip-rule="evenodd"
     d="m 70.5317,58.5765 c -0.7947,0.6231 -1.7991,0.9895 -2.8873,0.9763 -2.5366,-0.0306 -4.5681,-2.1117 -4.5375,-4.6482 0.0127,-1.0498 0.3766,-2.0131 0.9786,-2.7795 -0.8384,-0.251 -1.7254,-0.3907 -2.6441,-0.4018 -5.3049,-0.064 -9.6574,4.1847 -9.7214,9.4896 -0.064,5.305 4.1846,9.6574 9.4896,9.7215 5.305,0.064 9.6574,-4.1847 9.7214,-9.4896 0.0121,-0.9971 -0.1283,-1.9606 -0.3993,-2.8683 z"
     fill="#ffffff"
     id="path4" />
</svg>
