<?xml version="1.0" encoding="UTF-8" standalone="no"?>
<svg
   width="87.994003"
   height="87.301003"
   viewBox="0 0 93.994 93.253746"
   fill="none"
   version="1.1"
   id="svg5"
   sodipodi:docname="ORD_Icon_Color_Logo.svg"
   inkscape:version="1.4 (86a8ad7, 2024-10-11)"
   xmlns:inkscape="http://www.inkscape.org/namespaces/inkscape"
   xmlns:sodipodi="http://sodipodi.sourceforge.net/DTD/sodipodi-0.dtd"
   xmlns="http://www.w3.org/2000/svg"
   xmlns:svg="http://www.w3.org/2000/svg">
  <sodipodi:namedview
     id="namedview5"
     pagecolor="#ffffff"
     bordercolor="#000000"
     borderopacity="0.25"
     inkscape:showpageshadow="2"
     inkscape:pageopacity="0.0"
     inkscape:pagecheckerboard="0"
     inkscape:deskcolor="#d1d1d1"
     inkscape:zoom="8.2723214"
     inkscape:cx="46.17809"
     inkscape:cy="80.207231"
     inkscape:window-width="3840"
     inkscape:window-height="2071"
     inkscape:window-x="2391"
     inkscape:window-y="-9"
     inkscape:window-maximized="1"
     inkscape:current-layer="svg5" />
  <path
     fill-rule="evenodd"
     clip-rule="evenodd"
     d="m 41.757244,25.664416 c 0.1203,-0.8589 0.1825,-1.7364 0.1825,-2.6285 0,-0.0243 0,-0.0486 -10e-5,-0.0729 h 4.9746 c -10e-5,0.0243 -10e-5,0.0486 -10e-5,0.0729 0,0.8921 0.0622,1.7696 0.1825,2.6285 z m -15.852,15.9477 v -15.9477 h 15.852 c -1.1528,8.2284 -7.6391,14.7467 -15.852,15.9477 z m 0,5.3719 v -5.3719 c -0.8821,0.129 -1.784,0.1966 -2.7014,0.1985 v -16.1462 -2.7014 h 2.7014 16.0344 c -0.0393,-10.3355 -8.4299,-18.7017996 -18.7746,-18.7017996 -10.369,0 -18.7746998,8.4056996 -18.7746998,18.7746996 0,10.369 8.4056998,18.7747 18.7746998,18.7747 0.0129,0 0.0259,0 0.0388,0 v 4.975 c -0.0129,-10e-5 -0.0259,-10e-5 -0.0388,-10e-5 -10.369,0 -18.7746998,8.4057 -18.7746998,18.7747 0,10.369 8.4056998,18.7747 18.7746998,18.7747 10.369,0 18.7747,-8.4057 18.7747,-18.7747 0,-0.0243 0,-0.0486 -10e-5,-0.0729 h 21.0872 2.7014 v -2.7014 -20.9753 c 10.3508,-0.0213 18.7353,-8.4188 18.7353,-18.7747 0,-10.369 -8.4057,-18.7746996 -18.7747,-18.7746996 -10.3447,0 -18.7353,8.3662996 -18.7746,18.7017996 h 16.1126 2.7014 v 2.7014 16.1462 c -0.0132,0 -0.0263,0 -0.0394,0 -0.9037,0 -1.7925,-0.0638 -2.662,-0.1873 v -15.9589 h -15.9302 c 1.1564,8.2545 7.6803,14.788 15.9302,15.9589 v 21.1626 h -21.2906 c -1.2086,-8.1595 -7.6667,-14.608 -15.831,-15.8019 z m 15.831,15.8019 c 0.1306,0.882 0.1999,1.784 0.2034,2.7014 h -16.0344 -2.7014 v -2.7014 -16.0003 c 0.9174,0.0018 1.8193,0.0695 2.7014,0.1984 v 15.8019 z"
     fill="url(#paint0_linear_204_2717)"
     id="path1"
     style="fill:url(#paint0_linear_204_2717)" />
  <path
     fill-rule="evenodd"
     clip-rule="evenodd"
     d="m 65.688444,78.913716 c 7.3851,0 13.372,-5.9868 13.372,-13.3719 0,-7.3851 -5.9869,-13.3719 -13.372,-13.3719 -7.3851,0 -13.3719,5.9868 -13.3719,13.3719 0,7.3851 5.9868,13.3719 13.3719,13.3719 z m 0,5.4028 c 10.369,0 18.7748,-8.4057 18.7748,-18.7747 0,-10.369 -8.4058,-18.7747 -18.7748,-18.7747 -10.3689,0 -18.7747,8.4057 -18.7747,18.7747 0,10.369 8.4058,18.7747 18.7747,18.7747 z"
     fill="#3edebf"
     id="path2" />
  <path
     fill-rule="evenodd"
     clip-rule="evenodd"
     d="m 83.782044,75.491716 8.6023,8.7606 -7.3606,7.3099 -8.6022,-8.7607 z"
     fill="#3edebf"
     id="path3" />
  <path
     fill-rule="evenodd"
     clip-rule="evenodd"
     d="m 74.922044,62.837716 c -0.7947,0.6231 -1.7991,0.9895 -2.8873,0.9763 -2.5366,-0.0306 -4.5681,-2.1117 -4.5375,-4.6482 0.0127,-1.0498 0.3766,-2.0131 0.9786,-2.7795 -0.8384,-0.251 -1.7254,-0.3907 -2.6441,-0.4018 -5.3049,-0.064 -9.6574,4.1847 -9.7214,9.4896 -0.064,5.305 4.1846,9.6574 9.4896,9.7215 5.305,0.064 9.6574,-4.1847 9.7214,-9.4896 0.0121,-0.9971 -0.1283,-1.9606 -0.3993,-2.8683 z"
     fill="#3edebf"
     id="path4" />
  <defs
     id="defs5">
    <linearGradient
       id="paint0_linear_204_2717"
       x1="25.7924"
       y1="23.9594"
       x2="74.000198"
       y2="72.499802"
       gradientUnits="userSpaceOnUse"
       gradientTransform="translate(-13.609656,-11.738784)">
      <stop
         stop-color="#3EDEBF"
         id="stop4" />
      <stop
         offset="1"
         stop-color="#18828D"
         id="stop5" />
    </linearGradient>
  </defs>
</svg>
