<svg width="3144" height="972" xmlns="http://www.w3.org/2000/svg" xmlns:xlink="http://www.w3.org/1999/xlink" xml:space="preserve" overflow="hidden"><defs><clipPath id="clip0"><rect x="742" y="1140" width="3144" height="972"/></clipPath><clipPath id="clip1"><path d="M1680.98 1325.34 1739.35 1426.44 1641.74 1482.79 1583.37 1381.69Z" fill-rule="evenodd" clip-rule="evenodd"/></clipPath><clipPath id="clip2"><path d="M1680.98 1325.34 1739.35 1426.44 1641.74 1482.79 1583.37 1381.69Z" fill-rule="evenodd" clip-rule="evenodd"/></clipPath><clipPath id="clip3"><path d="M1680.98 1325.34 1739.35 1426.44 1641.74 1482.79 1583.37 1381.69Z" fill-rule="evenodd" clip-rule="evenodd"/></clipPath></defs><g clip-path="url(#clip0)" transform="translate(-742 -1140)"><path d="M2601.04 1659.5 2601.04 2032.42C2601.04 2035.58 2598.47 2038.15 2595.31 2038.15L1702.15 2038.15 1702.15 2026.69 2595.31 2026.69 2589.58 2032.42 2589.58 1659.5ZM1707.87 2049.61 1673.5 2032.42 1707.87 2015.23Z"/><rect x="760" y="1140" width="1276" height="972" fill="#F2F2F2"/><text font-family="Arial,Arial_MSFontService,sans-serif" font-weight="400" font-size="83" transform="matrix(1 0 0 1 792.248 1246)">System Landscape</text><rect x="2281.5" y="1524.5" width="660" height="153" stroke="#000000" stroke-width="9.16667" stroke-miterlimit="8" fill="#F2F2F2"/><text font-family="Arial,Arial_MSFontService,sans-serif" font-weight="400" font-size="50" transform="matrix(1 0 0 1 2313.7 1598)">ORD Document(s)</text><rect x="2265.5" y="1507.5" width="660" height="152" stroke="#000000" stroke-width="9.16667" stroke-miterlimit="8" fill="#F2F2F2"/><text font-family="Arial,Arial_MSFontService,sans-serif" font-weight="400" font-size="55" transform="matrix(1 0 0 1 2297.36 1586)">ORD Document</text><text font-family="Arial,Arial_MSFontService,sans-serif" font-weight="400" font-size="50" transform="matrix(1 0 0 1 2145.36 1540)">0..n</text><path d="M1153.5 1665 1296.75 1378.5 1660.25 1378.5 1803.5 1665 1660.25 1951.5 1296.75 1951.5Z" stroke="#008FD3" stroke-width="9.16667" stroke-miterlimit="8" fill="#C3ECFF" fill-rule="evenodd"/><text fill="#004769" font-family="Arial,Arial_MSFontService,sans-serif" font-weight="400" font-size="92" transform="matrix(1 0 0 1 1325.12 1644)">System </text><text fill="#004769" font-family="Arial,Arial_MSFontService,sans-serif" font-weight="400" font-size="92" transform="matrix(1 0 0 1 1304.79 1754)">Instance</text><rect x="2265.5" y="1284.5" width="660" height="152" stroke="#000000" stroke-width="9.16667" stroke-miterlimit="8" fill="#F2F2F2"/><text font-family="Arial,Arial_MSFontService,sans-serif" font-weight="400" font-size="55" transform="matrix(1 0 0 1 2297.36 1363)">ORD Configuration</text><text font-family="Arial,Arial_MSFontService,sans-serif" font-weight="400" font-size="32" transform="matrix(1 0 0 1 2297.36 1407)">(.well</text><text font-family="Arial,Arial_MSFontService,sans-serif" font-weight="400" font-size="32" transform="matrix(1 0 0 1 2371.84 1407)">-</text><text font-family="Arial,Arial_MSFontService,sans-serif" font-weight="400" font-size="32" transform="matrix(1 0 0 1 2382.72 1407)">known Configuration URI)</text><path d="M1.72652-5.46283 453.637 137.363 450.184 148.288-1.72652 5.46283ZM451.627 124.71 479.224 151.458 441.268 157.487Z" transform="matrix(1 0 0 -1 1786.5 1511.96)"/><path d="M1787.35 1505.83 2238.24 1573.08 2236.55 1584.41 1785.65 1517.17ZM2234.26 1560.9 2265.72 1582.97 2229.19 1594.9Z"/><text font-family="Arial,Arial_MSFontService,sans-serif" font-weight="400" font-size="50" transform="matrix(1 0 0 1 2171.21 1357)">1</text><path d="M2622.28 1888.5 2622.28 2034.28C2622.28 2037.45 2619.71 2040.01 2616.55 2040.01L1659.5 2040.01C1656.34 2040.01 1653.77 2037.45 1653.77 2034.28L1653.77 1980.43 1665.23 1980.43 1665.23 2034.28 1659.5 2028.55 2616.55 2028.55 2610.82 2034.28 2610.82 1888.5ZM1642.31 1986.16 1659.5 1951.78 1676.69 1986.16Z"/><text font-family="Arial,Arial_MSFontService,sans-serif" font-weight="400" font-size="50" transform="matrix(1 0 0 1 2006.57 1993)">describes</text><path d="M2925.5 1354.77 3008 1354.77C3011.16 1354.77 3013.73 1357.34 3013.73 1360.5L3013.73 1583.43C3013.73 1586.59 3011.16 1589.16 3008 1589.16L2958.73 1589.16 2958.73 1577.7 3008 1577.7 3002.27 1583.43 3002.27 1360.5 3008 1366.23 2925.5 1366.23ZM2964.46 1600.61 2930.08 1583.43 2964.46 1566.24Z"/><text font-family="Arial,Arial_MSFontService,sans-serif" font-weight="400" font-size="50" transform="matrix(1 0 0 1 3025.88 1454)">references ORD documents </text><text font-family="Arial,Arial_MSFontService,sans-serif" font-weight="400" font-size="50" transform="matrix(1 0 0 1 3025.88 1515)">and how to access them</text><text font-family="Arial,Arial_MSFontService,sans-serif" font-weight="400" font-size="50" transform="matrix(0.960441 -0.278482 0.278482 0.960441 1920.03 1435)">provides</text><text font-family="Arial,Arial_MSFontService,sans-serif" font-weight="400" font-size="50" transform="matrix(0.831096 0.556129 -0.556129 0.831096 1969.47 1562)">provides</text><rect x="2286.5" y="1735.5" width="660" height="153" stroke="#000000" stroke-width="9.16667" stroke-miterlimit="8" fill="#F2F2F2"/><text font-family="Arial,Arial_MSFontService,sans-serif" font-weight="400" font-size="50" transform="matrix(1 0 0 1 2318.8 1809)">ORD Document(s)</text><rect x="2270.5" y="1718.5" width="660" height="152" stroke="#000000" stroke-width="9.16667" stroke-miterlimit="8" fill="#F2F2F2"/><text font-family="Arial,Arial_MSFontService,sans-serif" font-weight="400" font-size="55" transform="matrix(1 0 0 1 2302.46 1797)">Resource Definitions</text><path d="M2925.5 1577.77 3008.64 1577.77C3011.81 1577.77 3014.37 1580.34 3014.37 1583.5L3014.37 1794.44C3014.37 1797.6 3011.81 1800.17 3008.64 1800.17L2959.25 1800.17 2959.25 1788.71 3008.64 1788.71 3002.91 1794.44 3002.91 1583.5 3008.64 1589.23 2925.5 1589.23ZM2964.98 1811.62 2930.6 1794.44 2964.98 1777.25Z"/><text font-family="Arial,Arial_MSFontService,sans-serif" font-weight="400" font-size="50" transform="matrix(1 0 0 1 3025.88 1686)">references resource </text><text font-family="Arial,Arial_MSFontService,sans-serif" font-weight="400" font-size="50" transform="matrix(1 0 0 1 3025.88 1747)">definitions</text><path d="M1789.39 1506.55 2248.97 1774.53 2243.2 1784.43 1783.61 1516.45ZM2249.79 1761.74 2270.83 1793.9 2232.47 1791.44Z"/><text font-family="Arial,Arial_MSFontService,sans-serif" font-weight="400" font-size="50" transform="matrix(1 0 0 1 2148.79 1706)">0..n</text><path d="M1679.21 1331.64 1843.71 1616.58 1752.5 1669.24 1588 1384.3Z" fill="#008FD3" fill-rule="evenodd"/><g clip-path="url(#clip1)"><g clip-path="url(#clip2)"><g clip-path="url(#clip3)"><path d="M1676.24 1392.41C1677.05 1392.09 1677.85 1391.7 1678.62 1391.25 1678.64 1391.24 1678.67 1391.23 1678.69 1391.21L1681.19 1395.55C1681.17 1395.56 1681.15 1395.57 1681.13 1395.58 1680.35 1396.03 1679.62 1396.53 1678.93 1397.07L1676.24 1392.41ZM1654.37 1386.62 1668.26 1378.6 1676.24 1392.41C1668.49 1395.55 1659.54 1393.18 1654.37 1386.62ZM1649.68 1389.33 1654.37 1386.62C1653.81 1385.92 1653.3 1385.17 1652.83 1384.37L1666.9 1376.24 1669.26 1374.88 1670.62 1377.24 1678.69 1391.21C1687.67 1385.98 1690.74 1374.46 1685.54 1365.44 1680.32 1356.4 1668.77 1353.31 1659.73 1358.52 1650.69 1363.74 1647.6 1375.3 1652.81 1384.33 1652.82 1384.35 1652.83 1384.36 1652.83 1384.37L1648.5 1386.87C1648.49 1386.86 1648.48 1386.85 1648.48 1386.84 1643.26 1377.8 1631.7 1374.7 1622.67 1379.92 1613.63 1385.14 1610.53 1396.69 1615.75 1405.73 1620.97 1414.77 1632.52 1417.86 1641.56 1412.65 1641.58 1412.63 1641.6 1412.62 1641.63 1412.61L1652.24 1430.99 1653.6 1433.34 1655.95 1431.98 1674.23 1421.43C1679.46 1430.44 1690.99 1433.52 1700.02 1428.31 1709.06 1423.09 1712.15 1411.54 1706.94 1402.5 1701.73 1393.48 1690.22 1390.38 1681.19 1395.55L1689.3 1409.59 1690.66 1411.95 1688.3 1413.3 1674.23 1421.43C1674.22 1421.42 1674.22 1421.41 1674.21 1421.39 1673.76 1420.61 1673.36 1419.8 1673.03 1418.98L1686.94 1410.95 1678.93 1397.07C1672.31 1402.23 1669.9 1411.2 1673.03 1418.98L1654.59 1429.63 1643.88 1411.07C1650.38 1405.91 1652.75 1397.04 1649.68 1389.33ZM1643.88 1411.07C1643.17 1411.63 1642.42 1412.15 1641.63 1412.61L1633.56 1398.64 1632.2 1396.28 1634.55 1394.92 1648.5 1386.87C1648.96 1387.67 1649.35 1388.49 1649.68 1389.33L1635.91 1397.28 1643.88 1411.07Z" fill="#FFFFFF" fill-rule="evenodd"/><path d="M1641.87 1440.06C1645.59 1446.5 1653.82 1448.71 1660.26 1444.99 1666.69 1441.27 1668.9 1433.04 1665.18 1426.61 1661.47 1420.17 1653.24 1417.97 1646.8 1421.68 1640.36 1425.4 1638.16 1433.63 1641.87 1440.06ZM1637.16 1442.78C1642.38 1451.82 1653.94 1454.92 1662.97 1449.7 1672.01 1444.48 1675.11 1432.93 1669.89 1423.89 1664.67 1414.85 1653.12 1411.76 1644.08 1416.97 1635.04 1422.19 1631.95 1433.75 1637.16 1442.78Z" fill="#FFFFFF" fill-rule="evenodd"/><path d="M1653.96 1454.11 1650.65 1466.02 1640.58 1463.28 1643.89 1451.37 1653.96 1454.11Z" fill="#FFFFFF" fill-rule="evenodd"/><path d="M1660.53 1440.02C1659.59 1439.64 1658.76 1438.95 1658.23 1438 1656.98 1435.77 1657.77 1432.95 1659.99 1431.7 1660.92 1431.19 1661.94 1431.02 1662.91 1431.16 1662.71 1430.3 1662.38 1429.46 1661.93 1428.65 1659.32 1424 1653.42 1422.34 1648.77 1424.95 1644.11 1427.57 1642.46 1433.46 1645.07 1438.12 1647.68 1442.77 1653.58 1444.43 1658.23 1441.81 1659.11 1441.32 1659.88 1440.72 1660.53 1440.02Z" fill="#FFFFFF" fill-rule="evenodd"/></g></g></g><text fill="#FFFFFF" font-family="Arial,Arial_MSFontService,sans-serif" font-weight="400" font-size="32" transform="matrix(0.5 0.866025 -0.866025 0.5 1726.75 1504)">ORD </text><text fill="#FFFFFF" font-family="Arial,Arial_MSFontService,sans-serif" font-weight="400" font-size="32" transform="matrix(0.5 0.866025 -0.866025 0.5 1665.76 1477)">Provider API</text></g></svg>